<svg width="68" height="64" viewBox="0 0 68 64" fill="none" xmlns="http://www.w3.org/2000/svg">
<path fill-rule="evenodd" clip-rule="evenodd" d="M32.0002 15.3333C32.0002 14.2287 32.8956 13.3333 34.0002 13.3333C35.1041 13.3333 35.9991 14.2276 36.0002 15.3313C36.0002 15.3319 36.0002 15.3326 36.0002 15.3333C36.0002 15.3339 36.0002 15.3346 36.0002 15.3352C35.9991 16.4389 35.1041 17.3333 34.0002 17.3333C32.8956 17.3333 32.0002 16.4378 32.0002 15.3333ZM28.3416 13.3333H15.3335H12.6668C11.5623 13.3333 10.6668 14.2287 10.6668 15.3333C10.6668 16.381 11.4724 17.2405 12.498 17.3262L7.25739 31.9999H5.3335V33.9999C5.3335 39.5312 9.80226 43.9999 15.3335 43.9999C20.8647 43.9999 25.3335 39.5312 25.3335 33.9999V31.9999H23.4096L18.1715 17.3333H28.3416C28.9441 19.0381 30.2953 20.3893 32.0002 20.9918V50.6666H23.3335C22.2289 50.6666 21.3335 51.562 21.3335 52.6666C21.3335 53.7712 22.2289 54.6666 23.3335 54.6666H34.0002H44.6668C45.7714 54.6666 46.6668 53.7712 46.6668 52.6666C46.6668 51.562 45.7714 50.6666 44.6668 50.6666H36.0002V20.9918C37.705 20.3893 39.0562 19.0381 39.6587 17.3333H49.8288L44.5907 31.9999H42.6668V33.9999C42.6668 39.5312 47.1356 43.9999 52.6668 43.9999C58.1981 43.9999 62.6668 39.5312 62.6668 33.9999V31.9999H60.7429L55.5023 17.3262C56.5279 17.2405 57.3335 16.381 57.3335 15.3333C57.3335 14.2287 56.4381 13.3333 55.3335 13.3333H52.6668H39.6587C38.8351 11.0029 36.6126 9.33325 34.0002 9.33325C31.3877 9.33325 29.1652 11.0029 28.3416 13.3333ZM15.3335 21.2797L19.1622 31.9999H11.5048L15.3335 21.2797ZM9.67285 35.9999C10.4937 38.3339 12.7132 39.9999 15.3335 39.9999C17.9538 39.9999 20.1733 38.3339 20.9941 35.9999H9.67285ZM52.6668 21.2797L56.4955 31.9999H48.8382L52.6668 21.2797ZM47.0062 35.9999C47.827 38.3339 50.0465 39.9999 52.6668 39.9999C55.2871 39.9999 57.5066 38.3339 58.3275 35.9999H47.0062Z" fill="#131314"/>
</svg>
