<svg width="60" height="60" viewBox="0 0 60 60" fill="none" xmlns="http://www.w3.org/2000/svg">
<path fill-rule="evenodd" clip-rule="evenodd" d="M30 9.375C18.6091 9.375 9.375 18.6091 9.375 30C9.375 41.3909 18.6091 50.625 30 50.625C41.3909 50.625 50.625 41.3909 50.625 30C50.625 18.6091 41.3909 9.375 30 9.375ZM5.625 30C5.625 16.5381 16.5381 5.625 30 5.625C43.4619 5.625 54.375 16.5381 54.375 30C54.375 43.4619 43.4619 54.375 30 54.375C16.5381 54.375 5.625 43.4619 5.625 30ZM18.1251 20C18.1251 18.9645 18.9645 18.125 20.0001 18.125H23.3963H25.6251V15C25.6251 13.9645 26.4645 13.125 27.5001 13.125C28.5356 13.125 29.3751 13.9645 29.3751 15V18.125H30.6251V15C30.6251 13.9645 31.4645 13.125 32.5001 13.125C33.5356 13.125 34.3751 13.9645 34.3751 15V18.125H36.9812C37.3354 18.125 37.6822 18.2253 37.9817 18.4143C39.9616 19.6635 41.1775 21.1672 41.6525 22.8655C42.122 24.5443 41.7837 26.1151 41.2495 27.3511C40.7989 28.3935 40.1747 29.2823 39.6281 29.9455C40.6743 31.1056 41.3416 32.2905 41.6596 33.4944C42.1118 35.2064 41.7988 36.7342 41.2217 37.948C40.659 39.1315 39.8417 40.0326 39.2099 40.6173C38.8874 40.9157 38.5956 41.1479 38.3792 41.3089C38.2706 41.3897 38.1797 41.4536 38.112 41.4997C38.0781 41.5229 38.0499 41.5416 38.028 41.556L37.9999 41.5742L37.9896 41.5808L37.9853 41.5835L37.9835 41.5847C37.9826 41.5852 37.9817 41.5858 36.9812 40L37.9817 41.5858C37.6822 41.7747 37.3354 41.875 36.9812 41.875H34.3751V45C34.3751 46.0355 33.5356 46.875 32.5001 46.875C31.4645 46.875 30.6251 46.0355 30.6251 45V41.875H29.3751V45C29.3751 46.0355 28.5356 46.875 27.5001 46.875C26.4645 46.875 25.6251 46.0355 25.6251 45V41.875H23.3963H20.0001C18.9645 41.875 18.1251 41.0356 18.1251 40C18.1251 38.9645 18.9645 38.125 20.0001 38.125H21.5213V30V21.875H20.0001C18.9645 21.875 18.1251 21.0356 18.1251 20ZM27.5094 38.125C27.5063 38.125 27.5032 38.125 27.5001 38.125C27.497 38.125 27.4938 38.125 27.4907 38.125H25.2713V31.875H36.2707C37.4041 32.9375 37.8652 33.8132 38.034 34.4521C38.2185 35.1508 38.107 35.7658 37.8351 36.3377C37.5487 36.94 37.0925 37.4674 36.6629 37.8649C36.556 37.9639 36.455 38.0508 36.3646 38.125H32.5094C32.5063 38.125 32.5032 38.125 32.5001 38.125C32.497 38.125 32.4938 38.125 32.4907 38.125H27.5094ZM25.2713 21.875V28.125H36.2309C36.3224 28.03 36.4232 27.9215 36.5292 27.8011C36.9882 27.2798 37.4894 26.5986 37.8073 25.8632C38.1221 25.1349 38.2083 24.4736 38.0411 23.8756C37.8969 23.3602 37.4984 22.6548 36.4113 21.875H25.2713Z" fill="#F5A621"/>
</svg>
