<svg width="60" height="60" viewBox="0 0 60 60" fill="none" xmlns="http://www.w3.org/2000/svg">
<path fill-rule="evenodd" clip-rule="evenodd" d="M23.435 10.4418C15.8306 12.9933 10.2043 19.8554 9.45908 28.125H18.7827C18.9756 22.6179 20.0127 17.5967 21.6472 13.7792C22.1699 12.5585 22.7658 11.4322 23.435 10.4418ZM36.565 10.4418C37.2342 11.4322 37.8301 12.5585 38.3528 13.7792C39.9873 17.5967 41.0244 22.6179 41.2173 28.125H50.5409C49.7957 19.8554 44.1694 12.9933 36.565 10.4418ZM37.4648 28.125C37.2731 23.0362 36.31 18.5356 34.9055 15.2552C34.1166 13.4128 33.2255 12.0418 32.3315 11.1586C31.4454 10.2833 30.6597 9.97898 30 9.97898C29.3403 9.97898 28.5546 10.2833 27.6685 11.1586C26.7745 12.0418 25.8834 13.4128 25.0945 15.2552C23.69 18.5356 22.7269 23.0362 22.5352 28.125H37.4648ZM22.5352 31.875H37.4648C37.2731 36.9638 36.31 41.4644 34.9055 44.7448C34.1166 46.5872 33.2255 47.9582 32.3315 48.8414C31.4454 49.7167 30.6597 50.021 30 50.021C29.3403 50.021 28.5546 49.7167 27.6685 48.8414C26.7745 47.9582 25.8834 46.5872 25.0945 44.7448C23.69 41.4644 22.7269 36.9638 22.5352 31.875ZM18.7827 31.875H9.45908C10.2043 40.1446 15.8307 47.0067 23.435 49.5582C22.7659 48.5678 22.1699 47.4415 21.6472 46.2208C20.0127 42.4032 18.9756 37.3821 18.7827 31.875ZM36.565 49.5582C37.2341 48.5678 37.8301 47.4415 38.3528 46.2208C39.9873 42.4032 41.0243 37.3821 41.2173 31.875H50.5409C49.7957 40.1446 44.1693 47.0067 36.565 49.5582ZM30 5.625C16.5381 5.625 5.625 16.5381 5.625 30C5.625 43.4619 16.5381 54.375 30 54.375C43.4619 54.375 54.375 43.4619 54.375 30C54.375 16.5381 43.4619 5.625 30 5.625Z" fill="#F5A621"/>
</svg>
