<svg width="116" height="29" viewBox="0 0 116 29" fill="none" xmlns="http://www.w3.org/2000/svg">
<path d="M57.8087 15.7956C55.471 15.7956 53.5656 17.5738 53.5656 20.0228C53.5656 22.457 55.471 24.2501 57.8087 24.2501C60.1474 24.2501 62.0528 22.457 62.0528 20.0228C62.0518 17.5738 60.1465 15.7956 57.8087 15.7956ZM57.8087 22.5862C56.5275 22.5862 55.4233 21.5296 55.4233 20.0238C55.4233 18.5021 56.5285 17.4614 57.8087 17.4614C59.0899 17.4614 60.1942 18.5021 60.1942 20.0238C60.1942 21.5287 59.0899 22.5862 57.8087 22.5862ZM48.5512 15.7956C46.2134 15.7956 44.308 17.5738 44.308 20.0228C44.308 22.457 46.2134 24.2501 48.5512 24.2501C50.8899 24.2501 52.7953 22.457 52.7953 20.0228C52.7953 17.5738 50.8899 15.7956 48.5512 15.7956ZM48.5512 22.5862C47.27 22.5862 46.1657 21.5296 46.1657 20.0238C46.1657 18.5021 47.271 17.4614 48.5512 17.4614C49.8323 17.4614 50.9366 18.5021 50.9366 20.0238C50.9376 21.5287 49.8323 22.5862 48.5512 22.5862ZM37.5403 17.0937V18.8868H41.8321C41.7039 19.8956 41.3679 20.6321 40.8551 21.144C40.2309 21.7682 39.2538 22.457 37.5403 22.457C34.8984 22.457 32.833 20.327 32.833 17.6851C32.833 15.0432 34.8984 12.9132 37.5403 12.9132C38.9656 12.9132 40.0063 13.4738 40.7746 14.1944L42.0399 12.9291C40.9664 11.9043 39.5421 11.1201 37.5403 11.1201C33.9214 11.1201 30.8789 14.0662 30.8789 17.6851C30.8789 21.304 33.9214 24.2501 37.5403 24.2501C39.4934 24.2501 40.9674 23.609 42.1194 22.4083C43.3041 21.2235 43.6729 19.5577 43.6729 18.2129C43.6729 17.7974 43.6411 17.4127 43.5765 17.0927H37.5403V17.0937ZM82.5737 18.4862C82.2219 17.542 81.1484 15.7956 78.9548 15.7956C76.7771 15.7956 74.9671 17.5092 74.9671 20.0228C74.9671 22.3924 76.7611 24.2501 79.1625 24.2501C81.0997 24.2501 82.2209 23.0653 82.686 22.3765L81.2448 21.4153C80.7647 22.12 80.1077 22.5842 79.1625 22.5842C78.2183 22.5842 77.5454 22.1519 77.113 21.303L82.7655 18.9653L82.5737 18.4862ZM76.8089 19.8956C76.7611 18.2616 78.0741 17.4296 79.0194 17.4296C79.7559 17.4296 80.3801 17.7984 80.5888 18.3262L76.8089 19.8956ZM72.2139 23.9946H74.0706V11.5694H72.2139V23.9946ZM69.1704 16.7408H69.1068C68.6904 16.2439 67.8892 15.7956 66.8814 15.7956C64.7673 15.7956 62.8301 17.6533 62.8301 20.0397C62.8301 22.4093 64.7673 24.251 66.8814 24.251C67.8902 24.251 68.6904 23.8028 69.1068 23.2909H69.1704V23.8992C69.1704 25.5163 68.3057 26.3811 66.9132 26.3811C65.7761 26.3811 65.0714 25.565 64.7832 24.8762L63.166 25.5491C63.6302 26.6693 64.8627 28.0469 66.9132 28.0469C69.0909 28.0469 70.9327 26.7657 70.9327 23.6428V16.053H69.1714V16.7408H69.1704ZM67.0414 22.5862C65.7602 22.5862 64.6878 21.5127 64.6878 20.0397C64.6878 18.5498 65.7602 17.4614 67.0414 17.4614C68.3057 17.4614 69.2986 18.5498 69.2986 20.0397C69.2986 21.5127 68.3057 22.5862 67.0414 22.5862ZM91.2747 11.5694H86.8307V23.9946H88.6844V19.2873H91.2737C93.3291 19.2873 95.3508 17.7994 95.3508 15.4288C95.3508 13.0583 93.3301 11.5694 91.2747 11.5694ZM91.3224 17.5579H88.6844V13.2988H91.3224C92.7089 13.2988 93.4961 14.4468 93.4961 15.4288C93.4961 16.391 92.7089 17.5579 91.3224 17.5579ZM102.784 15.7737C101.442 15.7737 100.051 16.3651 99.4756 17.6761L101.122 18.363C101.473 17.6761 102.129 17.4515 102.816 17.4515C103.775 17.4515 104.75 18.027 104.766 19.0498V19.178C104.43 18.9862 103.711 18.6989 102.832 18.6989C101.058 18.6989 99.251 19.674 99.251 21.4959C99.251 23.1587 100.706 24.2292 102.336 24.2292C103.583 24.2292 104.27 23.6696 104.702 23.0136H104.765V23.9727H106.556V19.2088C106.557 17.0042 104.91 15.7737 102.784 15.7737ZM102.56 22.5832C101.954 22.5832 101.106 22.2791 101.106 21.5277C101.106 20.5685 102.161 20.2007 103.073 20.2007C103.887 20.2007 104.271 20.3767 104.766 20.6162C104.622 21.7682 103.631 22.5832 102.56 22.5832ZM113.079 16.0451L110.953 21.4322H110.889L108.683 16.0451H106.685L109.994 23.5742L108.107 27.7626H110.041L115.141 16.0451H113.079ZM96.3745 23.9946H98.2283V11.5694H96.3745V23.9946Z" fill="#1C1C1D"/>
<path d="M37.2187 4.35748C37.2187 5.1904 36.9722 5.85336 36.4782 6.34834C35.9176 6.93675 35.1861 7.23096 34.2876 7.23096C33.4268 7.23096 32.6943 6.93278 32.0929 6.33641C31.4906 5.73906 31.1895 4.99957 31.1895 4.11695C31.1895 3.23333 31.4906 2.49384 32.0929 1.89748C32.6943 1.30012 33.4268 1.00194 34.2876 1.00194C34.715 1.00194 35.1235 1.08543 35.5111 1.25142C35.8997 1.4184 36.2108 1.64005 36.4434 1.91736L35.9196 2.44216C35.525 1.97004 34.9813 1.73448 34.2866 1.73448C33.6584 1.73448 33.1157 1.95513 32.6575 2.39644C32.1993 2.83775 31.9707 3.41125 31.9707 4.11595C31.9707 4.82066 32.1993 5.39416 32.6575 5.83547C33.1157 6.27678 33.6584 6.49743 34.2866 6.49743C34.9525 6.49743 35.5081 6.27578 35.9524 5.83149C36.2407 5.54226 36.4076 5.13971 36.4524 4.62386H34.2866V3.90723H37.1759C37.2058 4.06328 37.2187 4.21336 37.2187 4.35748Z" fill="#1C1C1D"/>
<path d="M41.8008 1.86672H39.0854V3.7572H41.5345V4.47383H39.0854V6.3643H41.8008V7.09783H38.3191V1.13419H41.8008V1.86672Z" fill="#1C1C1D"/>
<path d="M45.032 7.09783H44.2657V1.86672H42.5999V1.13419H46.6979V1.86672H45.032V7.09783Z" fill="#1C1C1D"/>
<path d="M49.6628 7.09783V1.13419H50.4291V7.09783H49.6628Z" fill="#1C1C1D"/>
<path d="M53.8275 7.09783H53.0612V1.86672H51.3953V1.13419H55.4934V1.86672H53.8275V7.09783Z" fill="#1C1C1D"/>
<path d="M63.2508 6.32752C62.6644 6.92984 61.9359 7.23101 61.0642 7.23101C60.1925 7.23101 59.4639 6.92984 58.8785 6.32752C58.2921 5.72519 57.9998 4.98769 57.9998 4.116C57.9998 3.24432 58.2921 2.50681 58.8785 1.90448C59.4639 1.30216 60.1925 1 61.0642 1C61.9309 1 62.6585 1.30315 63.2469 1.90846C63.8353 2.51377 64.1295 3.24929 64.1295 4.116C64.1295 4.98769 63.8363 5.72519 63.2508 6.32752ZM59.444 5.82756C59.8854 6.27484 60.4251 6.49748 61.0642 6.49748C61.7033 6.49748 62.244 6.27384 62.6843 5.82756C63.1256 5.38029 63.3472 4.80977 63.3472 4.116C63.3472 3.42223 63.1256 2.85171 62.6843 2.40444C62.244 1.95716 61.7033 1.73452 61.0642 1.73452C60.4251 1.73452 59.8854 1.95816 59.444 2.40444C59.0037 2.85171 58.7821 3.42223 58.7821 4.116C58.7821 4.80977 59.0037 5.38029 59.444 5.82756Z" fill="#1C1C1D"/>
<path d="M65.2049 7.09783V1.13419H66.1373L69.0356 5.77291H69.0684L69.0356 4.62391V1.13419H69.8019V7.09783H69.0018L65.9693 2.23349H65.9365L65.9693 3.38248V7.09783H65.2049Z" fill="#1C1C1D"/>
<path d="M37.2187 4.35748C37.2187 5.1904 36.9722 5.85336 36.4782 6.34834C35.9176 6.93675 35.1861 7.23096 34.2876 7.23096C33.4268 7.23096 32.6943 6.93278 32.0929 6.33641C31.4906 5.73906 31.1895 4.99957 31.1895 4.11695C31.1895 3.23333 31.4906 2.49384 32.0929 1.89748C32.6943 1.30012 33.4268 1.00194 34.2876 1.00194C34.715 1.00194 35.1235 1.08543 35.5111 1.25142C35.8997 1.4184 36.2108 1.64005 36.4434 1.91736L35.9196 2.44216C35.525 1.97004 34.9813 1.73448 34.2866 1.73448C33.6584 1.73448 33.1157 1.95513 32.6575 2.39644C32.1993 2.83775 31.9707 3.41125 31.9707 4.11595C31.9707 4.82066 32.1993 5.39416 32.6575 5.83547C33.1157 6.27678 33.6584 6.49743 34.2866 6.49743C34.9525 6.49743 35.5081 6.27578 35.9524 5.83149C36.2407 5.54226 36.4076 5.13971 36.4524 4.62386H34.2866V3.90723H37.1759C37.2058 4.06328 37.2187 4.21336 37.2187 4.35748Z" stroke="#1C1C1D" stroke-width="0.24" stroke-miterlimit="10"/>
<path d="M41.8008 1.86672H39.0854V3.7572H41.5345V4.47383H39.0854V6.3643H41.8008V7.09783H38.3191V1.13419H41.8008V1.86672Z" stroke="#1C1C1D" stroke-width="0.24" stroke-miterlimit="10"/>
<path d="M45.032 7.09783H44.2657V1.86672H42.5999V1.13419H46.6979V1.86672H45.032V7.09783Z" stroke="#1C1C1D" stroke-width="0.24" stroke-miterlimit="10"/>
<path d="M49.6628 7.09783V1.13419H50.4291V7.09783H49.6628Z" stroke="#1C1C1D" stroke-width="0.24" stroke-miterlimit="10"/>
<path d="M53.8275 7.09783H53.0612V1.86672H51.3953V1.13419H55.4934V1.86672H53.8275V7.09783Z" stroke="#1C1C1D" stroke-width="0.24" stroke-miterlimit="10"/>
<path d="M63.2508 6.32752C62.6644 6.92984 61.9359 7.23101 61.0642 7.23101C60.1925 7.23101 59.4639 6.92984 58.8785 6.32752C58.2921 5.72519 57.9998 4.98769 57.9998 4.116C57.9998 3.24432 58.2921 2.50681 58.8785 1.90448C59.4639 1.30216 60.1925 1 61.0642 1C61.9309 1 62.6585 1.30315 63.2469 1.90846C63.8353 2.51377 64.1295 3.24929 64.1295 4.116C64.1295 4.98769 63.8363 5.72519 63.2508 6.32752ZM59.444 5.82756C59.8854 6.27484 60.4251 6.49748 61.0642 6.49748C61.7033 6.49748 62.244 6.27384 62.6843 5.82756C63.1256 5.38029 63.3472 4.80977 63.3472 4.116C63.3472 3.42223 63.1256 2.85171 62.6843 2.40444C62.244 1.95716 61.7033 1.73452 61.0642 1.73452C60.4251 1.73452 59.8854 1.95816 59.444 2.40444C59.0037 2.85171 58.7821 3.42223 58.7821 4.116C58.7821 4.80977 59.0037 5.38029 59.444 5.82756Z" stroke="#1C1C1D" stroke-width="0.24" stroke-miterlimit="10"/>
<path d="M65.2049 7.09783V1.13419H66.1373L69.0356 5.77291H69.0684L69.0356 4.62391V1.13419H69.8019V7.09783H69.0018L65.9693 2.23349H65.9365L65.9693 3.38248V7.09783H65.2049Z" stroke="#1C1C1D" stroke-width="0.24" stroke-miterlimit="10"/>
<path fill-rule="evenodd" clip-rule="evenodd" d="M0.140451 1.1972C0.0495578 1.4427 0 1.73333 0 2.06458V24.0465C0 24.3788 0.0496946 24.6697 0.140828 24.9153L11.9988 13.0556L0.140451 1.1972ZM0.98032 25.7729C1.4079 25.9112 1.94455 25.8342 2.5256 25.5047L16.5044 17.5612L12.8474 13.9041L0.98032 25.7729ZM17.5872 16.9469L21.9084 14.4918C23.2969 13.7016 23.2969 12.4105 21.9084 11.6213L17.5857 9.16506L13.6958 13.0555L17.5872 16.9469ZM16.5036 8.55016L2.5256 0.607476C1.94423 0.277107 1.40731 0.200462 0.979617 0.339305L12.8473 12.207L16.5036 8.55016Z" fill="#1C1C1D"/>
</svg>
