<svg width="64" height="64" viewBox="0 0 64 64" fill="none" xmlns="http://www.w3.org/2000/svg">
<path fill-rule="evenodd" clip-rule="evenodd" d="M26.1963 8.22932C28.8672 3.92307 35.1328 3.92307 37.8037 8.22932C38.5312 9.40224 39.9988 9.8791 41.2768 9.3578C45.9687 7.4439 51.0377 11.1267 50.6673 16.1804C50.5665 17.557 51.4735 18.8054 52.8138 19.1348C57.7347 20.3443 59.6708 26.3032 56.4007 30.1741C55.51 31.2284 55.51 32.7716 56.4007 33.8259C59.6708 37.6968 57.7347 43.6557 52.8138 44.8651C51.4735 45.1946 50.5665 46.443 50.6673 47.8195C51.0377 52.8733 45.9687 56.5561 41.2768 54.6422C39.9988 54.1209 38.5312 54.5977 37.8037 55.7706C35.1328 60.0769 28.8672 60.0769 26.1963 55.7706C25.4688 54.5977 24.0012 54.1209 22.7232 54.6422C18.0313 56.5561 12.9624 52.8733 13.3327 47.8195C13.4336 46.443 12.5265 45.1946 11.1862 44.8651C6.26535 43.6557 4.3292 37.6968 7.59933 33.8259C8.49003 32.7716 8.49003 31.2284 7.59933 30.1741C4.3292 26.3032 6.26535 20.3443 11.1862 19.1348C12.5265 18.8054 13.4336 17.557 13.3327 16.1804C12.9624 11.1267 18.0313 7.4439 22.7232 9.3578C24.0012 9.8791 25.4688 9.40224 26.1963 8.22932ZM34.4044 10.3377C33.2979 8.55362 30.7021 8.55362 29.5956 10.3377C27.8396 13.1688 24.2971 14.3198 21.2125 13.0615C19.2686 12.2686 17.1686 13.7944 17.322 15.8881C17.5655 19.2107 15.3761 22.224 12.1409 23.0192C10.1023 23.5203 9.30012 25.989 10.6549 27.5927C12.8048 30.1376 12.8048 33.8624 10.6549 36.4072C9.30012 38.0109 10.1023 40.4797 12.1409 40.9808C15.3761 41.7759 17.5655 44.7893 17.322 48.1119C17.1686 50.2056 19.2686 51.7314 21.2125 50.9384C24.2971 49.6802 27.8396 50.8312 29.5956 53.6623C30.7021 55.4463 33.2979 55.4463 34.4044 53.6623C36.1604 50.8312 39.7029 49.6802 42.7876 50.9384C44.7314 51.7314 46.8314 50.2056 46.678 48.1119C46.4346 44.7893 48.6239 41.7759 51.8591 40.9808C53.8978 40.4797 54.6999 38.0109 53.3451 36.4072C51.1952 33.8624 51.1952 30.1376 53.3451 27.5927C54.6999 25.989 53.8978 23.5203 51.8591 23.0192C48.6239 22.224 46.4346 19.2107 46.678 15.8881C46.8314 13.7944 44.7314 12.2686 42.7876 13.0615C39.7029 14.3198 36.1604 13.1688 34.4044 10.3377ZM32 20.6666C25.7408 20.6666 20.6667 25.7408 20.6667 32C20.6667 38.2592 25.7408 43.3333 32 43.3333C38.2592 43.3333 43.3333 38.2592 43.3333 32C43.3333 25.7408 38.2592 20.6666 32 20.6666ZM16.6667 32C16.6667 23.5316 23.5316 16.6666 32 16.6666C40.4684 16.6666 47.3333 23.5316 47.3333 32C47.3333 40.4684 40.4684 47.3333 32 47.3333C23.5316 47.3333 16.6667 40.4684 16.6667 32ZM38.7476 30.7475C39.5286 29.9665 39.5286 28.7002 38.7476 27.9191C37.9665 27.1381 36.7002 27.1381 35.9191 27.9191L30.7324 33.1058L28.1436 30.2705C27.3989 29.4548 26.1338 29.3973 25.3181 30.1421C24.5024 30.8868 24.4449 32.1519 25.1897 32.9676L29.1897 37.3485C29.558 37.7519 30.0752 37.9871 30.6213 37.9995C31.1673 38.0119 31.6947 37.8004 32.0809 37.4142L38.7476 30.7475Z" fill="#131314"/>
</svg>
