<svg width="68" height="64" viewBox="0 0 68 64" fill="none" xmlns="http://www.w3.org/2000/svg">
<path fill-rule="evenodd" clip-rule="evenodd" d="M32 15.3334C32 14.2288 32.8954 13.3334 34 13.3334C35.1039 13.3334 35.9989 14.2277 36 15.3314C36 15.3321 36 15.3327 36 15.3334C36 15.334 36 15.3347 36 15.3353C35.9989 16.439 35.1039 17.3334 34 17.3334C32.8954 17.3334 32 16.4379 32 15.3334ZM28.3414 13.3334H15.3333H12.6666C11.5621 13.3334 10.6666 14.2288 10.6666 15.3334C10.6666 16.3811 11.4723 17.2406 12.4978 17.3263L7.25721 32H5.33331V34C5.33331 39.5313 9.80208 44 15.3333 44C20.8645 44 25.3333 39.5313 25.3333 34V32H23.4094L18.1713 17.3334H28.3414C28.944 19.0382 30.2952 20.3894 32 20.992V50.6667H23.3333C22.2287 50.6667 21.3333 51.5621 21.3333 52.6667C21.3333 53.7713 22.2287 54.6667 23.3333 54.6667H34H44.6666C45.7712 54.6667 46.6666 53.7713 46.6666 52.6667C46.6666 51.5621 45.7712 50.6667 44.6666 50.6667H36V20.992C37.7048 20.3894 39.056 19.0382 39.6586 17.3334H49.8286L44.5905 32H42.6666V34C42.6666 39.5313 47.1354 44 52.6666 44C58.1979 44 62.6666 39.5313 62.6666 34V32H60.7427L55.5021 17.3263C56.5277 17.2406 57.3333 16.3811 57.3333 15.3334C57.3333 14.2288 56.4379 13.3334 55.3333 13.3334H52.6666H39.6586C38.8349 11.003 36.6124 9.33337 34 9.33337C31.3875 9.33337 29.1651 11.003 28.3414 13.3334ZM15.3333 21.2798L19.162 32H11.5047L15.3333 21.2798ZM9.67267 36C10.4935 38.3341 12.713 40 15.3333 40C17.9536 40 20.1731 38.3341 20.994 36H9.67267ZM52.6666 21.2798L56.4953 32H48.838L52.6666 21.2798ZM47.006 36C47.8268 38.3341 50.0464 40 52.6666 40C55.2869 40 57.5065 38.3341 58.3273 36H47.006Z" fill="#131314"/>
</svg>
