<svg width="60" height="60" viewBox="0 0 60 60" fill="none" xmlns="http://www.w3.org/2000/svg">
<path d="M30 34.5C42.4264 34.5 52.5 28.4558 52.5 21C52.5 13.5442 42.4264 7.5 30 7.5C17.5736 7.5 7.5 13.5442 7.5 21C7.5 28.4558 17.5736 34.5 30 34.5Z" stroke="#F5A621" stroke-width="3.75" stroke-linecap="round" stroke-linejoin="round"/>
<path d="M7.5 25.5V39C7.5 46.4558 17.5736 52.5 30 52.5C42.4264 52.5 52.5 46.4558 52.5 39V25.5" stroke="#F5A621" stroke-width="3.75" stroke-linecap="round" stroke-linejoin="round"/>
<path d="M7.5 22.5V30C7.5 37.4558 17.5736 43.5 30 43.5C42.4264 43.5 52.5 37.4558 52.5 30V22.5" stroke="#F5A621" stroke-width="3.75" stroke-linecap="round" stroke-linejoin="round"/>
<path d="M41.4131 17.7617L38.369 18.8626M23.1485 24.3667L20.1044 25.4675M22.1326 21.1703L23.6564 25.9648C23.881 26.6712 24.4972 27.2038 25.3696 27.4452C26.2419 27.6867 27.299 27.6173 28.3081 27.2524C29.3173 26.8874 30.196 26.2568 30.7508 25.4992C31.3057 24.7417 31.4912 23.9192 31.2667 23.2128L30.2508 20.0165C30.0263 19.31 30.2118 18.4876 30.7667 17.73C31.3215 16.9724 32.2002 16.3418 33.2094 15.9768C34.2185 15.6119 35.2756 15.5425 36.1479 15.784C37.0203 16.0255 37.6365 16.558 37.8611 17.2644L39.3849 22.0589" stroke="#F5A621" stroke-width="3.75" stroke-linecap="round" stroke-linejoin="round"/>
</svg>
