<svg width="129" height="24" viewBox="0 0 129 24" fill="none" xmlns="http://www.w3.org/2000/svg">
<path d="M121.563 20.5987C121.563 18.7204 123.088 17.1964 124.965 17.1964C126.844 17.1964 128.367 18.7204 128.367 20.5987C128.367 22.4771 126.844 24 124.965 24C123.088 24 121.563 22.4771 121.563 20.5987Z" fill="black"/>
<path d="M13.0579 11.5885C13.0579 9.4335 12.6416 7.83474 11.8087 6.79318C10.9748 5.75261 9.7117 5.2328 8.01355 5.2328H6.2071V18.4108H7.58919C9.47542 18.4108 10.8577 17.8516 11.7378 16.7294C12.6169 15.609 13.0579 13.8951 13.0579 11.5885ZM19.5002 11.364C19.5002 15.2901 18.4448 18.3153 16.3342 20.4388C14.2235 22.5632 11.2564 23.6255 7.43171 23.6255H0V0.0998609H7.95048C11.6383 0.0998609 14.4853 1.06561 16.4916 2.99614C18.497 4.92765 19.5002 7.71564 19.5002 11.364Z" fill="black"/>
<path d="M40.086 23.6251H45.9997V0.00106137H40.086V23.6251Z" fill="black"/>
<path d="M54.3072 14.8133C54.3072 16.3195 54.504 17.4683 54.8969 18.2579C55.2907 19.0484 55.9502 19.4432 56.8775 19.4432C57.7951 19.4432 58.4438 19.0484 58.8218 18.2579C59.1999 17.4683 59.3879 16.3195 59.3879 14.8133C59.3879 13.3149 59.1969 12.1847 58.814 11.4218C58.43 10.6569 57.7755 10.2739 56.8472 10.2739C55.9395 10.2739 55.2907 10.6549 54.8969 11.4129C54.504 12.172 54.3072 13.3051 54.3072 14.8133ZM65.407 14.8133C65.407 17.683 64.6547 19.9216 63.1465 21.5263C61.6394 23.1319 59.5297 23.9352 56.8175 23.9352C54.2166 23.9352 52.1462 23.1142 50.6095 21.4721C49.0708 19.83 48.302 17.6111 48.302 14.8133C48.302 11.9524 49.0551 9.72949 50.5633 8.1445C52.0714 6.55952 54.186 5.76704 56.9091 5.76704C58.5915 5.76704 60.0801 6.13426 61.3697 6.86769C62.6603 7.60111 63.6566 8.65153 64.3565 10.0199C65.0575 11.3864 65.407 12.9851 65.407 14.8133Z" fill="black"/>
<path d="M67.7554 23.6252H73.6701V6.07717H67.7554V23.6252Z" fill="black"/>
<path d="M67.7553 3.95457H73.6699V0H67.7553V3.95457Z" fill="black"/>
<path d="M85.6527 19.1494C86.4511 19.1494 87.402 18.9466 88.5115 18.5439V22.9592C87.7141 23.3097 86.9561 23.5607 86.2355 23.7094C85.5148 23.86 84.6691 23.9348 83.7014 23.9348C81.7157 23.9348 80.2844 23.4357 79.4052 22.4394C78.5301 21.4432 78.091 19.9133 78.091 17.8489V10.6151H76.0198V6.07868H78.091V1.59742L84.051 0.560755V6.07868H87.8245V10.6151H84.051V17.4453C84.051 18.5813 84.5855 19.1494 85.6527 19.1494Z" fill="black"/>
<path d="M99.3415 19.1494C100.14 19.1494 101.091 18.9466 102.2 18.5439V22.9592C101.404 23.3097 100.645 23.5607 99.9242 23.7094C99.2027 23.86 98.36 23.9348 97.3902 23.9348C95.4046 23.9348 93.9733 23.4357 93.0961 22.4394C92.219 21.4432 91.7799 19.9133 91.7799 17.8489V10.6151H89.7076V6.07868H91.7799V1.5295L97.7388 0.560755V6.07868H101.514V10.6151H97.7388V17.4453C97.7388 18.5813 98.2734 19.1494 99.3415 19.1494Z" fill="black"/>
<path d="M109.663 12.6754C109.744 11.7146 110.019 11.0107 110.487 10.5608C110.958 10.1119 111.539 9.88744 112.234 9.88744C112.992 9.88744 113.594 10.1394 114.041 10.6474C114.491 11.1524 114.725 11.8288 114.744 12.6754H109.663ZM118.004 7.83584C116.598 6.4576 114.603 5.76747 112.023 5.76747C109.311 5.76747 107.224 6.55995 105.761 8.14493C104.299 9.72991 103.567 12.004 103.567 14.9673C103.567 17.837 104.358 20.05 105.935 21.6035C107.513 23.157 109.729 23.9347 112.583 23.9347C113.953 23.9347 115.133 23.8412 116.121 23.6551C117.104 23.471 118.055 23.1383 118.977 22.6578L118.069 18.7033C117.398 18.9769 116.76 19.1876 116.158 19.3264C115.287 19.5283 114.333 19.6297 113.293 19.6297C112.153 19.6297 111.253 19.351 110.594 18.7938C109.934 18.2356 109.582 17.4658 109.542 16.4853H120.113V13.7908C120.113 11.1987 119.41 9.2131 118.004 7.83584Z" fill="black"/>
<path d="M27.349 12.6754C27.4297 11.7146 27.7044 11.0107 28.1729 10.5608C28.6425 10.1119 29.2245 9.88744 29.9205 9.88744C30.6766 9.88744 31.279 10.1394 31.727 10.6474C32.1768 11.1524 32.4102 11.8288 32.4309 12.6754H27.349ZM35.6904 7.83584C34.2836 6.4576 32.29 5.76747 29.7088 5.76747C26.9956 5.76747 24.9095 6.55995 23.4475 8.14493C21.9856 9.72991 21.2532 12.004 21.2532 14.9673C21.2532 17.837 22.0428 20.05 23.6219 21.6035C25.199 23.157 27.4149 23.9347 30.2689 23.9347C31.6393 23.9347 32.8186 23.8412 33.807 23.6551C34.7895 23.471 35.7407 23.1383 36.6641 22.6578L35.7544 18.7033C35.084 18.9769 34.446 19.1876 33.8445 19.3264C32.9723 19.5283 32.0183 19.6297 30.9786 19.6297C29.8396 19.6297 28.939 19.351 28.2794 18.7938C27.6188 18.2356 27.2684 17.4658 27.2281 16.4853H37.7991V13.7908C37.7991 11.1987 37.0962 9.2131 35.6904 7.83584Z" fill="black"/>
</svg>
