<svg width="116" height="24" viewBox="0 0 116 24" fill="none" xmlns="http://www.w3.org/2000/svg">
<path d="M21.6434 6.85714C20.7478 2.8323 18.2103 0 13.4338 0H13.2845H13.1353C7.91102 0 3.88088 2.68323 1.79117 6.85714C0.597058 8.9441 0 11.4783 0 14.1615C0 19.3789 2.83603 22.6584 6.56764 23.5528C7.31396 23.7019 8.06028 23.8509 8.80661 23.8509C9.70219 23.8509 10.4485 23.7019 11.1948 23.5528C12.6875 23.1056 13.8816 22.3602 14.9265 21.3168V23.5528C14.9265 23.7019 15.0757 23.7019 15.0757 23.7019H18.3595L18.5088 23.5528L20.7478 12.2236C20.7478 12.0745 20.5985 11.9255 20.4492 11.9255H12.389C12.2397 11.9255 12.2397 12.0745 12.0904 12.0745L11.4934 15.0559V15.205C11.4934 15.354 11.6426 15.354 11.6426 15.354H15.6728C14.7772 17.7391 12.8367 19.8261 9.55293 19.8261C6.26911 19.8261 4.32867 17.441 4.32867 13.5652C4.32867 11.0311 5.22426 8.49689 6.56764 6.85714C7.91102 5.21739 10.0007 4.02484 12.389 4.02484C14.6279 4.02484 15.9713 5.06832 16.8669 6.85714C17.0162 7.30435 17.3147 7.75155 17.4639 8.34783C17.4639 8.49689 17.6132 8.49689 17.6132 8.49689L21.4941 7.45342L21.6434 7.30435V6.85714V6.85714ZM30.45 0.298136C30.45 0.149068 30.3007 0 30.1514 0H26.4198C26.2706 0 26.2706 0.149068 26.1213 0.149068L21.6434 23.2547V23.4037C21.6434 23.5528 21.7926 23.5528 21.7926 23.5528H25.6735L25.8228 23.4037L30.45 0.298136ZM41.4955 18.4845C40.5999 19.677 39.4058 20.2733 37.7639 20.2733C35.8235 20.2733 34.4801 18.6335 34.4801 16.0994C34.4801 14.3106 34.9279 12.9689 35.6742 11.7764C36.5698 10.5839 37.7639 9.98758 39.4058 9.98758C41.3463 9.98758 42.6897 11.6273 42.6897 14.1615C42.6897 16.0994 42.2419 17.441 41.4955 18.4845V18.4845ZM41.9433 6.85714C41.197 6.70807 40.5999 6.55901 39.7044 6.55901C38.8088 6.55901 37.9132 6.70807 37.0176 6.85714C35.525 7.15528 34.1816 7.90062 32.8382 9.24224C30.8978 11.1801 30.0022 13.5652 30.0022 16.8447C30.0022 20.1242 31.9426 22.8075 35.0772 23.7019C35.8235 23.7019 36.5698 23.8509 37.3161 23.8509C38.2117 23.8509 39.1073 23.7019 40.0029 23.5528C41.4955 23.2547 42.8389 22.5093 44.1823 21.1677C46.1227 19.2298 47.0183 16.8447 47.0183 13.5652C47.1676 10.2857 45.2271 7.60248 41.9433 6.85714V6.85714ZM60.8999 9.24224C60.3029 8.19876 59.1087 7.30435 57.6161 6.85714C57.019 6.70807 56.422 6.55901 55.8249 6.55901C55.0786 6.55901 54.3323 6.70807 53.7352 6.85714C51.347 7.45342 50.0036 9.24224 50.0036 11.7764C50.0036 14.0124 51.4963 15.354 53.4367 16.2484C55.3771 17.1429 56.2727 17.7391 56.2727 18.7826C56.2727 19.9752 55.2279 20.5714 54.183 20.5714C52.5411 20.5714 51.4963 19.677 51.0485 17.8882C51.0485 17.7391 50.8992 17.7391 50.7499 17.7391H50.6007L47.4661 19.0807C47.3168 19.0807 47.3169 19.2298 47.3169 19.2298C47.7646 20.8696 49.108 22.9565 51.6455 23.7019C52.2426 23.8509 52.8396 24 53.586 24C54.4816 24 55.2279 23.8509 55.9742 23.7019C58.5117 23.1056 60.1536 21.3168 60.1536 18.1863C60.1536 15.8012 58.3624 14.7578 56.7205 13.8634C55.5264 13.2671 53.8845 12.8199 53.8845 11.6273C53.8845 10.7329 54.6308 10.1366 55.5264 10.1366C56.422 10.1366 57.3176 10.5839 57.9146 11.3292L58.0639 11.4783H58.2132L60.7507 9.68944C60.8999 9.3913 60.8999 9.3913 60.8999 9.24224V9.24224ZM71.3484 6.85714C70.7514 6.70807 70.1543 6.55901 69.5573 6.55901C68.8109 6.55901 68.0646 6.70807 67.4676 6.85714C65.0793 7.45342 63.7359 9.24224 63.7359 11.7764C63.7359 14.0124 65.2286 15.354 67.169 16.2484C69.1095 17.1429 70.0051 17.7391 70.0051 18.7826C70.0051 19.9752 68.9602 20.5714 67.9154 20.5714C66.2734 20.5714 65.2286 19.5279 64.7808 17.8882C64.7808 17.7391 64.6315 17.7391 64.6315 17.7391H64.4823L61.1985 18.7826C61.0492 18.7826 61.0492 18.9317 61.0492 18.9317C61.497 20.5714 62.8404 22.6584 65.3779 23.4037C65.9749 23.5528 66.572 23.7019 67.3183 23.7019C68.2139 23.7019 68.9602 23.5528 69.7065 23.4037C72.244 22.8075 73.8859 21.0186 73.8859 17.8882C73.8859 15.5031 72.0948 14.4596 70.4529 13.5652C69.2587 12.9689 67.6168 12.5217 67.6168 11.3292C67.6168 10.4348 68.3631 9.83851 69.2587 9.83851C70.1543 9.83851 71.0499 10.2857 71.647 11.0311L71.7962 11.1801H71.9455L74.6323 9.24224L74.7815 9.09317V8.9441C74.0352 8.04969 72.8411 7.15528 71.3484 6.85714V6.85714ZM82.0955 6.85714H78.3639C78.2146 6.85714 78.2146 6.85714 78.0653 7.00621L74.9308 23.2547V23.4037C74.9308 23.5528 75.08 23.5528 75.08 23.5528H78.9609L79.1102 23.4037L82.2447 7.00621C82.394 6.85714 82.2447 6.85714 82.0955 6.85714V6.85714ZM87.9168 13.2671C88.6631 11.4783 90.305 10.1366 92.3947 10.1366C94.4844 10.1366 95.5293 11.1801 95.5293 13.2671H87.9168ZM95.0815 6.85714C94.4844 6.70807 93.7381 6.55901 92.9918 6.55901C92.0962 6.55901 91.3499 6.70807 90.6036 6.85714C85.9764 7.90062 82.9911 12.0745 82.9911 16.5466C82.9911 20.4224 85.0808 22.9565 88.0661 23.7019C88.6631 23.8509 89.4094 24 90.1558 24C91.0514 24 91.9469 23.8509 92.6933 23.7019C95.0815 23.1056 96.7234 21.764 98.3653 19.528V19.3789C98.3653 19.2298 98.3653 19.2298 98.2161 19.2298L95.38 17.7391H95.2308C95.0815 17.7391 95.0815 17.7391 95.0815 17.8882C93.8874 19.677 92.544 20.5714 90.6036 20.5714C88.3646 20.5714 87.1705 19.0807 87.1705 17.2919V16.6957H99.2609L99.4102 16.5466C99.5594 16.0994 99.858 14.9068 99.858 13.4161C99.7087 10.1366 98.0668 7.60248 95.0815 6.85714ZM113.143 10.5839H113.441C113.441 10.5839 113.59 10.5839 113.59 10.4348L114.784 7.15528V7.00621C114.784 6.85714 114.784 6.85714 114.635 6.85714C114.486 6.85714 114.486 6.85714 114.337 6.70807C113.889 6.55901 113.441 6.40994 112.545 6.40994C111.948 6.40994 111.351 6.55901 110.754 6.70807C109.56 7.15528 108.366 7.90062 107.321 9.24224L107.769 7.00621C107.769 6.85714 107.62 6.70807 107.47 6.70807H103.739C103.59 6.70807 103.59 6.85714 103.44 6.85714L100.306 23.1056V23.2547C100.306 23.4037 100.455 23.4037 100.455 23.4037H104.336L104.485 23.2547L105.679 17.441C106.724 12.2236 109.56 9.98758 111.65 9.98758C112.247 10.2857 112.695 10.2857 113.143 10.5839V10.5839ZM81.0506 0.298136C79.7072 0.298136 78.6624 1.34162 78.6624 2.68323C78.6624 4.02484 79.7072 5.06832 81.0506 5.06832C82.394 5.06832 83.4389 4.02484 83.4389 2.68323C83.4389 1.34162 82.394 0.298136 81.0506 0.298136V0.298136ZM113.292 19.0807C111.948 19.0807 110.904 20.1242 110.904 21.4658C110.904 22.3602 111.351 23.1056 112.098 23.5528C112.396 23.7019 112.844 23.8509 113.292 23.8509C113.74 23.8509 114.187 23.7019 114.486 23.5528C115.232 23.1056 115.68 22.3602 115.68 21.4658C115.68 20.1242 114.635 19.0807 113.292 19.0807Z" fill="black"/>
</svg>
