<svg width="79" height="24" viewBox="0 0 79 24" fill="none" xmlns="http://www.w3.org/2000/svg">
<path d="M49.9676 20.6019C49.8842 20.6019 44.3999 20.6019 44.3999 20.6019C44.6145 21.7584 45.2941 22.3307 46.4267 22.3307C46.8917 22.3307 47.2732 22.2472 47.5832 22.0684C47.8216 21.9372 48.0243 21.7345 48.1554 21.4961C48.2151 21.3649 48.3104 21.3649 48.4415 21.4126C48.5131 21.4365 49.6457 21.8538 49.8007 21.9134C49.9796 21.9849 49.9796 22.1757 49.9319 22.2472C49.6696 22.7718 49.2761 23.1891 48.7277 23.4991C48.1196 23.8448 47.3566 23.9998 46.4386 23.9998C45.1033 23.9998 44.0542 23.6302 43.315 22.8791C42.5758 22.1399 42.2062 21.1027 42.2062 19.7674C42.2062 18.4321 42.552 17.4067 43.2792 16.6556C43.9945 15.9165 45.0079 15.5349 46.2955 15.5349C47.5355 15.5349 48.525 15.9045 49.2046 16.6318C49.8842 17.3591 50.2061 18.4082 50.2061 19.7435C50.2061 19.9819 50.2061 20.2204 50.1584 20.4708C50.1584 20.5423 50.0511 20.6019 49.9676 20.6019ZM44.9841 17.6333C44.6622 17.9433 44.4595 18.4201 44.3761 19.0282H48.1554C48.072 18.4201 47.8693 17.9552 47.5474 17.6333C47.2136 17.2995 46.8082 17.1564 46.2836 17.1564C45.7471 17.1683 45.306 17.3233 44.9841 17.6333Z" fill="black"/>
<path d="M65.4542 22.2474C65.5856 22.0924 66.2648 21.4129 66.3722 21.3055C66.5036 21.1744 66.6584 21.3055 66.7184 21.389C66.9206 21.7228 67.1714 21.9374 67.505 22.0924C67.922 22.2951 68.423 22.3786 69.0074 22.3786C69.4844 22.3786 69.8534 22.307 70.1162 22.1759C70.3784 22.0447 70.5092 21.8659 70.5092 21.6274C70.5092 21.4486 70.3784 21.2817 70.1396 21.1505C69.9014 21.0194 69.4844 20.8883 68.876 20.7809C67.6364 20.5425 66.7538 20.2087 66.2534 19.7914C65.7524 19.3741 65.4902 18.8257 65.4902 18.1461C65.4902 17.6812 65.621 17.2758 65.9072 16.8585C66.1934 16.465 66.611 16.1313 67.1474 15.8928C67.6958 15.6543 68.3516 15.5232 69.1382 15.5232C70.0562 15.5232 70.772 15.6543 71.3438 15.9405C71.7968 16.1551 72.2144 16.5127 72.572 16.9658C72.6434 17.0493 72.7034 17.3116 72.572 17.4308C72.4406 17.5381 71.7014 18.1938 71.5946 18.2653C71.4872 18.3369 71.2724 18.2415 71.225 18.1581C71.0342 17.8719 70.7834 17.6335 70.5092 17.4785C70.1636 17.2758 69.7226 17.1685 69.1742 17.1685C68.7332 17.1685 68.3636 17.24 68.1014 17.3831C67.8386 17.5381 67.7078 17.7169 67.7078 17.9315C67.7078 18.1461 67.8386 18.3488 68.1014 18.5038C68.3636 18.6588 68.8166 18.7899 69.4724 18.9211C70.6526 19.1595 71.4872 19.4695 71.9876 19.8629C72.4886 20.2564 72.7268 20.7809 72.7268 21.4605C72.7268 22.2236 72.4052 22.8435 71.7614 23.2966C71.1296 23.7616 70.2116 24 69.0308 24C67.3736 24 66.1934 23.5589 65.4422 22.6885C65.3948 22.5932 65.2994 22.3786 65.4542 22.2474Z" fill="black"/>
<path d="M64.7019 9.58547C64.7019 9.58547 64.6185 9.58547 64.5705 9.58547C64.3797 9.58547 64.2249 9.53783 64.1175 9.43049C64.0341 9.34703 63.9627 9.16823 63.9627 8.95361V5.63919C63.9627 4.64963 63.6285 3.91045 62.9847 3.40971C62.3295 2.90897 61.4349 2.64668 60.2787 2.64668C59.301 2.64668 58.5141 2.84935 57.8942 3.25471C57.3696 3.60046 57.0358 4.01775 56.8331 4.56617C56.7734 4.73309 56.8331 4.93577 57 5.00731C57.155 5.06692 57.9538 5.41266 58.1087 5.4842C58.3353 5.56766 58.5141 5.53189 58.5737 5.38882C58.7049 5.01923 58.8718 4.7927 59.1341 4.59002C59.444 4.37542 59.8494 4.2562 60.3621 4.2562C60.8031 4.2562 61.1254 4.38734 61.3636 4.62579C61.6018 4.88808 61.7331 5.22191 61.7331 5.65111V6.04457L59.7898 6.41417C57.6676 6.80759 56.6185 7.66601 56.6185 8.97743C56.6185 9.65705 56.8331 10.1577 57.2742 10.5273C57.7153 10.8731 58.3472 11.0758 59.1341 11.0758C59.8136 11.0758 60.3976 10.9685 60.8986 10.7658C61.3996 10.5631 61.7691 10.2651 62.0073 9.84778C62.2101 10.6585 62.8419 11.0758 63.8673 11.0758C64.1769 11.0758 64.4397 11.0281 64.7019 10.9446V9.58547ZM61.7805 8.26211C61.7805 8.66747 61.5543 9.00131 61.1488 9.22781C60.7438 9.47819 60.3027 9.58547 59.8018 9.58547C59.5156 9.58547 59.2652 9.51395 59.1103 9.38279C58.9552 9.25169 58.8599 9.04901 58.8599 8.77475C58.8599 8.50055 58.9552 8.30981 59.1341 8.14289C59.3129 7.98791 59.5991 7.86869 59.9806 7.78523L61.7691 7.37987V8.26211H61.7805Z" fill="black"/>
<path d="M56.3842 15.5947C56.2053 15.547 55.9908 15.5232 55.7523 15.5232C54.5243 15.5232 53.6778 16.0955 53.2367 17.2758C53.2367 17.2758 53.2128 15.7259 52.7598 15.6782C52.3067 15.6305 51.1622 15.6782 51.1622 15.6782V23.38C51.1622 23.6185 51.3648 23.8211 51.6033 23.8211H52.9386C53.1771 23.8211 53.3798 23.6185 53.3917 23.38V19.5649C53.3917 18.8614 53.5705 18.3368 53.964 17.9434C54.3574 17.5738 54.8105 17.3712 55.335 17.3712C55.6212 17.3712 55.8596 17.4189 56.0504 17.4785C56.1576 17.5261 56.3722 17.4785 56.3961 17.3235C56.3961 17.1685 56.5749 16.0716 56.5869 15.9047C56.6346 15.7497 56.4796 15.6424 56.3842 15.5947Z" fill="black"/>
<path d="M41.2761 2.80166H39.9169C39.6785 2.80166 39.4758 3.00434 39.4758 3.24279V7.15331C39.4758 7.88057 39.297 8.41709 38.9512 8.79863C38.6055 9.16823 38.1405 9.34703 37.5802 9.34703C37.1271 9.34703 36.7695 9.21587 36.531 8.95361C36.2926 8.69129 36.1852 8.25017 36.1852 7.61831V3.24279C36.1852 3.00434 35.9945 2.80166 35.7441 2.80166H34.385C34.1466 2.80166 33.9439 3.00434 33.9439 3.24279V8.20247C33.9439 9.20399 34.2061 9.93125 34.7069 10.4081C35.2315 10.885 35.911 11.1116 36.8052 11.1116C38.1763 11.1116 39.1182 10.587 39.6427 9.56165C39.6427 9.56165 39.6904 10.4796 39.7143 10.6346C39.7381 10.8135 39.8931 10.9685 40.0362 10.9685C40.1673 10.9685 41.6934 10.9685 41.6934 10.9685V3.24279C41.7172 2.99241 41.5146 2.80166 41.2761 2.80166Z" fill="black"/>
<path d="M34.895 16.298C34.3466 15.7973 33.6551 15.5349 32.7729 15.5349C32.141 15.5349 31.5926 15.6661 31.1157 15.9522C30.6387 16.2145 30.2691 16.6318 30.0069 17.1564V17.1087C30.0069 17.1087 29.9592 16.1907 29.9354 16.0357C29.9115 15.8568 29.7565 15.7019 29.6135 15.7019C29.4823 15.7019 27.9562 15.7019 27.9562 15.7019V23.4037C27.9562 23.6421 28.1589 23.8448 28.3974 23.8448H29.7565C29.9949 23.8448 30.1976 23.6421 30.1976 23.4037V19.5289C30.1976 18.7659 30.3765 18.2175 30.7461 17.8479C31.1157 17.4783 31.5568 17.2995 32.0814 17.2995C33.0471 17.2995 33.5239 17.9075 33.5239 19.1593V23.4156C33.5239 23.6541 33.7266 23.8567 33.9651 23.8567H35.2885C35.5269 23.8567 35.7296 23.6541 35.7296 23.4156V18.5036C35.7058 17.5379 35.4196 16.7987 34.895 16.298Z" fill="black"/>
<path d="M72.2864 3.40971C71.738 2.90897 71.0462 2.64668 70.1642 2.64668C69.5324 2.64668 68.984 2.77782 68.507 3.06396C68.03 3.32625 67.6604 3.74353 67.3982 4.26812V4.22043C67.3982 4.22043 67.3502 3.30241 67.3268 3.14742C67.3028 2.96858 67.148 2.81359 66.9926 2.81359C66.8618 2.81359 65.3354 2.81359 65.3354 2.81359V10.4916C65.3354 10.73 65.5262 10.9327 65.777 10.9327H67.136C67.3742 10.9327 67.577 10.73 67.577 10.4916V6.62873C67.577 5.86571 67.7558 5.31728 68.1254 4.94769C68.495 4.5781 68.936 4.39927 69.461 4.39927C70.4264 4.39927 70.9034 5.00731 70.9034 6.25913V10.4916C70.9034 10.73 71.0942 10.9327 71.3444 10.9327H72.7034C72.9422 10.9327 73.145 10.73 73.145 10.4916V5.60342C73.097 4.66156 72.8108 3.91045 72.2864 3.40971Z" fill="black"/>
<path d="M55.1561 3.40971C54.6076 2.90897 53.9161 2.64668 53.0816 2.64668C52.4974 2.64668 51.949 2.77782 51.4602 3.06396C50.9594 3.3501 50.5898 3.74353 50.3275 4.29196C50.1129 3.76738 49.7553 3.3501 49.3022 3.06396C48.8253 2.77782 48.3007 2.64668 47.6808 2.64668C47.0965 2.64668 46.572 2.77782 46.107 3.06396C45.654 3.32625 45.2724 3.74353 44.9982 4.26812V4.22043C44.9982 4.22043 44.9505 3.30241 44.9267 3.14742C44.9028 2.96858 44.7478 2.81359 44.5929 2.81359C44.4617 2.81359 42.9357 2.81359 42.9357 2.81359V10.4916C42.9357 10.7062 43.0907 10.885 43.2814 10.9089C43.3053 10.9089 43.3529 10.9089 43.3648 10.9089H44.7121C44.7836 10.9089 44.8194 10.885 44.8671 10.885C44.9982 10.8374 45.0817 10.73 45.1055 10.5989C45.1055 10.5512 45.1294 10.5273 45.1294 10.4916V6.60491C45.1294 5.86571 45.3082 5.31728 45.654 4.94769C45.9997 4.5781 46.417 4.37542 46.9177 4.37542C47.3589 4.37542 47.7046 4.50656 47.9669 4.76886C48.2053 5.03115 48.3365 5.44843 48.3365 6.02069C48.3365 6.04457 48.3365 6.06839 48.3365 6.10415V10.4796C48.3365 10.7181 48.5392 10.9208 48.7776 10.9208H50.1367C50.3752 10.9208 50.5779 10.7181 50.5779 10.4796V6.55721C50.5779 5.87763 50.7567 5.35305 51.0786 4.95962C51.4005 4.59002 51.8416 4.38734 52.3662 4.38734C52.8074 4.38734 53.1293 4.51849 53.3916 4.78078C53.63 5.04307 53.7612 5.46035 53.7612 6.03263V10.4916C53.7612 10.73 53.9638 10.9327 54.2023 10.9327H55.5614C55.7999 10.9327 56.0026 10.73 56.0026 10.4916V5.60342C55.9906 4.66156 55.7045 3.91045 55.1561 3.40971Z" fill="black"/>
<path d="M78.1136 22.0203C77.8274 22.1992 77.5052 22.2826 77.1476 22.2826C76.4084 22.2826 76.0388 21.913 76.0388 21.162V17.3349H78.0542C78.2924 17.3349 78.4952 17.1322 78.4952 16.8938V16.1069C78.4952 15.8684 78.2924 15.6657 78.0542 15.6657H76.0388V12.9355C76.0388 12.7209 75.8006 12.6017 75.5384 12.6732L74.1794 13.007C73.9646 13.0547 73.8098 13.2455 73.8098 13.4243V21.5554C73.8098 23.2006 74.7038 23.9995 76.5158 23.9995C76.9568 23.9995 77.3624 23.9279 77.756 23.8206C78.1496 23.7133 78.4712 23.5345 78.7334 23.3437C78.7334 23.3437 78.5192 22.3422 78.4472 22.1157C78.3878 21.8892 78.221 21.9846 78.1136 22.0203Z" fill="black"/>
<path d="M64.2489 20.6019C64.1649 20.6019 58.6809 20.6019 58.6809 20.6019C58.8955 21.7584 59.5751 22.3307 60.7077 22.3307C61.1607 22.3307 61.5543 22.2472 61.8639 22.0684C62.1027 21.9372 62.3055 21.7345 62.4363 21.4961C62.5077 21.3649 62.5917 21.3649 62.7225 21.4126C62.7939 21.4365 63.9267 21.8538 64.0815 21.9134C64.2603 21.9849 64.2603 22.1757 64.2129 22.2472C63.9507 22.7718 63.5571 23.1891 63.0087 23.4991C62.4009 23.8448 61.6377 23.9998 60.7197 23.9998C59.3843 23.9998 58.3351 23.6302 57.5959 22.8791C56.8567 22.1399 56.4872 21.1027 56.4872 19.7674C56.4872 18.4321 56.8329 17.4067 57.5602 16.6556C58.2755 15.9165 59.289 15.5349 60.5763 15.5349C61.8165 15.5349 62.8059 15.9045 63.4857 16.6318C64.1649 17.3591 64.4871 18.4082 64.4871 19.7435C64.4871 19.9819 64.4871 20.2204 64.4391 20.4708C64.4511 20.5423 64.3443 20.6019 64.2489 20.6019ZM59.289 17.6333C58.9551 17.9433 58.7643 18.4201 58.6809 19.0282H62.4603C62.3769 18.4201 62.1741 17.9552 61.8525 17.6333C61.5303 17.2995 61.1133 17.1564 60.5883 17.1564C60.0399 17.1683 59.5989 17.3233 59.289 17.6333Z" fill="black"/>
<path d="M41.3131 22.0203C41.027 22.1992 40.7051 22.2826 40.3474 22.2826C39.6082 22.2826 39.2386 21.913 39.2386 21.162V17.3349H41.2535C41.4919 17.3349 41.6946 17.1322 41.6946 16.8938V16.1069C41.6946 15.8684 41.5039 15.6657 41.2535 15.6657H39.2267V12.9355C39.2267 12.7209 38.9882 12.6017 38.726 12.6732L37.3668 13.007C37.1522 13.0547 36.9972 13.2455 36.9972 13.4243V21.5554C36.9972 23.2006 37.8914 23.9995 39.7036 23.9995C40.1447 23.9995 40.5501 23.9279 40.9435 23.8206C41.3369 23.7133 41.6588 23.5345 41.9212 23.3437C41.9212 23.3437 41.7065 22.3422 41.635 22.1157C41.5873 21.8892 41.3966 21.9846 41.3131 22.0203Z" fill="black"/>
<path d="M25.8611 12.6375H24.502C24.2636 12.6375 24.0609 12.8998 24.0609 13.2336V23.1888C24.0609 23.5226 24.2636 23.7849 24.502 23.7849H25.8611C26.0996 23.7849 26.3023 23.5226 26.3023 23.1888V13.2575C26.2904 12.9236 26.0996 12.6375 25.8611 12.6375Z" fill="black"/>
<path d="M32.43 0H31.0709C30.8324 0 30.6297 0.309981 30.6297 0.655727V4.56626H26.2899V0.655727C26.2899 0.309981 26.0873 0 25.8488 0H24.4897C24.2513 0 24.0486 0.309981 24.0486 0.655727V10.2532C24.0486 10.6228 24.2513 10.9089 24.4897 10.9089H25.8488C26.0873 10.9089 26.2899 10.599 26.2899 10.2532V6.36653H30.6297V10.2532C30.6297 10.6228 30.8324 10.9089 31.0709 10.9089H32.43C32.6684 10.9089 32.8711 10.599 32.8711 10.2532V0.655727C32.8473 0.309981 32.6446 0 32.43 0Z" fill="black"/>
<path d="M12.6136 7.08191C14.5689 7.08191 16.1545 5.49621 16.1545 3.54094C16.1545 1.58567 14.5689 0 12.6136 0C10.6583 0 9.07264 1.58567 9.07264 3.54094C9.07264 5.49621 10.6583 7.08191 12.6136 7.08191Z" fill="black"/>
<path d="M15.0222 10.8848C14.4022 9.91912 13.5319 9.34684 12.2324 9.3349C11.1474 9.32302 9.66904 9.82372 7.55879 10.8848C6.06851 11.636 5.11469 12.399 5.11469 12.399V2.21728C5.11469 1.59732 4.61395 1.09658 3.99399 1.09658C3.80323 1.09658 3.63632 1.14427 3.48133 1.2158L0 2.88493V23.7729H3.5171C4.38743 23.7729 5.10277 23.0575 5.10277 22.1872V15.1292C5.10277 15.1292 5.80619 14.5689 6.85535 14.0442C7.71377 13.6151 8.50067 13.3289 9.1087 13.3409C9.85978 13.3527 10.4678 13.7223 10.4678 14.5689V22.1872C10.4678 23.0575 11.1832 23.7729 12.0535 23.7729H15.4633V12.5063C15.4752 11.934 15.3679 11.4213 15.0222 10.8848Z" fill="black"/>
</svg>
