<svg width="145" height="24" viewBox="0 0 145 24" fill="none" xmlns="http://www.w3.org/2000/svg">
<path d="M0 0.964099C0 0.633134 0.321975 0.332317 0.675561 0.332317H3.98839C4.38237 0.332317 4.66688 0.633134 4.66688 0.964099V9.79974H16.2768V0.964099C16.2768 0.633134 16.5612 0.332317 16.9551 0.332317H20.2306C20.5859 0.332317 20.9091 0.633134 20.9091 0.964099V23.0337C20.9091 23.3686 20.5859 23.6672 20.2306 23.6672H16.9551C16.5612 23.6672 16.2768 23.3686 16.2768 23.0337V13.8342H4.66688V23.0337C4.66688 23.3686 4.38237 23.6672 3.98839 23.6672H0.675561C0.321975 23.6672 0 23.3686 0 23.0337V0.964099Z" fill="black"/>
<path d="M39.3673 15.8708L35.8045 8.53261H35.6973L32.2071 15.8708H39.3673ZM23.9804 22.971L35.0558 0.531503C35.1623 0.332592 35.3426 0.165464 35.6598 0.165464H36.0181C36.3747 0.165464 36.5158 0.332592 36.6223 0.531503L47.5906 22.971C47.8082 23.4017 47.5273 23.834 46.9864 23.834H43.8866C43.3556 23.834 43.1057 23.6352 42.8551 23.1683L41.1117 19.5689H30.4626L28.7164 23.1683C28.5741 23.5031 28.2521 23.834 27.6848 23.834H24.5851C24.05 23.834 23.7673 23.4017 23.9804 22.971Z" fill="black"/>
<path d="M61.1363 10.9646C63.0225 10.9646 64.6629 9.43423 64.6629 7.56793C64.6629 5.7997 63.0225 4.33011 61.1363 4.33011H55.3309V10.9646H61.1363ZM50.6645 0.96462C50.6645 0.633667 50.9491 0.33229 51.3424 0.33229H61.5257C65.8015 0.33229 69.2946 3.53231 69.2946 7.49999C69.2946 10.5691 67.1175 13.0666 64.0207 14.2343L68.9011 22.7016C69.1482 23.1378 68.9011 23.6672 68.2965 23.6672H64.5563C64.2343 23.6672 64.0558 23.5039 63.985 23.369L59.2489 14.5329H55.2963V23.0337C55.2963 23.369 54.9702 23.6672 54.6202 23.6672H51.3424C50.9491 23.6672 50.6645 23.369 50.6645 23.0337V0.96462Z" fill="black"/>
<path d="M82.7624 10.9646C84.6497 10.9646 86.2888 9.43423 86.2888 7.56793C86.2888 5.7997 84.6497 4.33011 82.7624 4.33011H76.9574V10.9646H82.7624ZM72.2946 0.96462C72.2946 0.633667 72.5751 0.33229 72.9685 0.33229H83.1563C87.4274 0.33229 90.9183 3.53231 90.9183 7.49999C90.9183 10.5691 88.7452 13.0666 85.6484 14.2343L90.5272 22.7016C90.7778 23.1378 90.5272 23.6672 89.9218 23.6672H86.1824C85.8621 23.6672 85.6841 23.5039 85.6139 23.369L80.8744 14.5329H76.9241V23.0337C76.9241 23.369 76.6033 23.6672 76.2456 23.6672H72.9685C72.5751 23.6672 72.2946 23.369 72.2946 23.0337V0.96462Z" fill="black"/>
<path d="M102.143 12.4338L94.0313 1.29616C93.7438 0.864389 94.0313 0.332331 94.5979 0.332331H98.2228C98.5131 0.332331 98.6957 0.498362 98.7999 0.633147L104.492 8.30112L110.197 0.633147C110.303 0.498362 110.474 0.332331 110.768 0.332331H114.432C115.004 0.332331 115.287 0.864389 115.004 1.29616L106.78 12.4014V23.0338C106.78 23.3685 106.452 23.6672 106.099 23.6672H102.825C102.435 23.6672 102.143 23.3685 102.143 23.0338V12.4338Z" fill="black"/>
<path d="M121.476 0.0772572C119.587 0.0772572 118.115 1.45643 118.115 3.22411C118.115 4.88383 119.434 6.18741 121.116 6.18741C121.369 6.18741 121.758 6.16713 122.131 6.0685C122.134 6.11343 122.134 6.15343 122.134 6.2011C122.134 8.02193 120.604 8.62413 120.405 8.63891C120.188 8.63891 120.014 8.67289 119.874 8.73043C119.639 8.84166 119.508 9.04111 119.508 9.26796C119.508 9.61974 119.857 9.92224 120.274 9.92224C122.992 9.92224 125.291 7.32713 125.291 4.25589C125.291 1.51287 123.372 0.0772572 121.476 0.0772572Z" fill="black"/>
<path d="M128.461 20.3973L129.739 18.3321C130.024 17.8636 130.632 17.8636 130.956 18.1014C131.13 18.1973 134.015 20.1677 136.329 20.1677C138.184 20.1677 139.573 19.0362 139.573 17.5973C139.573 15.8998 138.036 14.7371 135.049 13.5967C131.7 12.3299 128.354 10.3321 128.354 6.40057C128.354 3.43179 130.702 0 136.367 0C139.998 0 142.775 1.7326 143.488 2.23288C143.847 2.43234 143.948 3.00111 143.702 3.33207L142.353 5.23234C142.066 5.62797 141.526 5.897 141.103 5.62797C140.819 5.46468 138.11 3.79947 136.157 3.79947C134.125 3.79947 133.019 5.06742 133.019 6.13207C133.019 7.70139 134.336 8.76441 137.222 9.8636C140.674 11.1672 144.666 13.0997 144.666 17.4001C144.666 20.8324 141.494 23.9995 136.47 23.9995C131.988 23.9995 129.352 22.0329 128.642 21.4023C128.317 21.0982 128.14 20.9337 128.461 20.3973Z" fill="black"/>
</svg>
