<svg width="104" height="24" viewBox="0 0 104 24" fill="none" xmlns="http://www.w3.org/2000/svg">
<path d="M13.322 5.49398V18.4482C13.322 19.9053 13.9017 21.3027 14.9337 22.333C15.9656 23.3633 17.3652 23.9422 18.8246 23.9422C20.284 23.9422 21.6836 23.3633 22.7155 22.333C23.7474 21.3027 24.3271 19.9053 24.3271 18.4482V5.49398C24.3271 4.03688 23.7474 2.63947 22.7155 1.60915C21.6836 0.578828 20.284 0 18.8246 0C17.3652 0 15.9656 0.578828 14.9337 1.60915C13.9017 2.63947 13.322 4.03688 13.322 5.49398V5.49398ZM17.2607 18.4482V5.49398C17.2583 5.28589 17.2996 5.0796 17.3818 4.88837C17.464 4.69715 17.5854 4.52521 17.7381 4.3836C17.8909 4.242 18.0716 4.13386 18.2687 4.06614C18.4657 3.99841 18.6748 3.9726 18.8825 3.99036C19.082 3.98393 19.2807 4.01843 19.4663 4.09171C19.652 4.165 19.8206 4.27552 19.9617 4.41645C20.1029 4.55738 20.2136 4.72571 20.287 4.91105C20.3604 5.09638 20.3949 5.29478 20.3885 5.49398V18.4482C20.3825 18.8451 20.2219 19.2241 19.9408 19.5048C19.6596 19.7855 19.28 19.9458 18.8825 19.9518C18.6771 19.9595 18.4722 19.9268 18.2795 19.8554C18.0868 19.784 17.91 19.6753 17.7594 19.5357C17.6088 19.396 17.4872 19.2281 17.4016 19.0415C17.316 18.8549 17.2682 18.6533 17.2607 18.4482V18.4482ZM56.0683 0.289157H44.9473V4.22169H48.5385V23.5373H52.4771V4.22169H56.0683V0.289157ZM67.6526 0.289157V18.4482C67.6526 18.847 67.494 19.2294 67.2116 19.5114C66.9291 19.7934 66.5461 19.9518 66.1467 19.9518C65.7473 19.9518 65.3642 19.7934 65.0818 19.5114C64.7994 19.2294 64.6407 18.847 64.6407 18.4482V0.289157H60.5862V18.4482C60.5862 19.9206 61.172 21.3327 62.2148 22.3739C63.2576 23.4151 64.6719 24 66.1467 24C67.6214 24 69.0357 23.4151 70.0785 22.3739C71.1213 21.3327 71.7072 19.9206 71.7072 18.4482V0.289157H67.6526ZM103.68 4.22169V0.289157H93.9491V23.5373H103.68V19.6048H97.8878V13.5904H101.595V9.65783H97.8878V4.22169H103.68ZM41.2403 23.5373H37.0699L34.1739 12.5494C34.8964 12.4066 35.5464 12.0166 36.0117 11.4464C36.477 10.8763 36.7283 10.1619 36.7224 9.42651V5.84096C36.7272 5.62702 36.6885 5.41433 36.6086 5.21573C36.5288 5.01713 36.4095 4.83673 36.258 4.68541C36.1064 4.53409 35.9257 4.41499 35.7268 4.33529C35.5279 4.25559 35.3149 4.21695 35.1006 4.22169H33.5946V23.5373H29.656V0.289157H35.1006C36.5395 0.276274 37.9264 0.825482 38.9653 1.81954C40.0042 2.8136 40.6128 4.17375 40.6611 5.60964V9.31084C40.714 10.2714 40.5427 11.231 40.1608 12.1142C39.7788 12.9973 39.1966 13.7798 38.4601 14.4L41.2403 23.5373ZM85.145 0.289157V13.012L81.0905 0.289157H77.036V23.5373H81.0905V12.2024L84.7975 23.5373H89.1995V0.289157H85.145ZM0 0.636144V23.8843H4.17037V13.9373H7.99321V10.0048H4.17037V4.56867H10.1942V0.636144H0Z" fill="black"/>
</svg>
