<svg width="92" height="24" viewBox="0 0 92 24" fill="none" xmlns="http://www.w3.org/2000/svg">
<path d="M22.7788 23.9342C21.1806 23.7013 19.7828 23.0244 18.7153 21.9665C17.8249 21.084 17.2476 20.1135 16.8221 18.7837C16.1577 16.7076 16.1574 14.0383 16.8215 12.0045C17.465 10.0336 18.914 8.31791 20.6873 7.42715C23.1432 6.19359 26.5997 6.27108 28.8742 7.61069C30.9212 8.81629 32.1612 10.9585 32.5062 13.8853C32.6115 14.7789 32.5432 16.6664 32.3773 17.4455C31.6983 20.6345 29.7208 22.8621 26.8236 23.7018C26.5114 23.7922 26.0273 23.8981 25.7478 23.937C25.1563 24.0193 23.3512 24.0176 22.7788 23.9342ZM26.2378 23.688C27.4073 23.4148 28.3396 22.9978 29.173 22.375C31.2 20.8602 32.3108 18.5374 32.4133 15.5989C32.5144 12.702 31.6413 10.2326 29.953 8.6404C28.5825 7.34794 26.8555 6.72841 24.623 6.72841C22.2565 6.72841 20.3506 7.46261 18.8844 8.93913C17.3138 10.5208 16.483 12.7271 16.483 15.3167C16.483 18.0031 17.2336 20.1717 18.6892 21.6911C19.4918 22.5288 20.273 23.0311 21.3933 23.4299C21.7894 23.5709 22.0809 23.6386 23.14 23.8356C23.2306 23.8525 23.8386 23.8556 24.4912 23.8426C25.3745 23.8249 25.8207 23.7854 26.2378 23.688ZM23.737 22.7507C22.6543 22.2593 21.8866 20.7655 21.5018 18.4018C21.2579 16.9034 21.2349 13.5713 21.4571 11.9386C21.7693 9.64576 22.4286 8.29116 23.4552 7.83358C24.1589 7.51993 25.1341 7.70549 25.7612 8.27234C27.1538 9.53127 27.8567 13.1111 27.5534 17.4002C27.3358 20.478 26.6683 22.1473 25.4231 22.7274C24.9717 22.9377 24.1732 22.9488 23.737 22.7507ZM25.1698 22.6536C25.6367 22.5149 26.2125 21.9746 26.5196 21.387C27.1535 20.1742 27.4365 18.3808 27.4435 15.5329C27.4523 11.9639 26.8932 9.6928 25.713 8.50366C25.2173 8.0043 24.8659 7.84921 24.2323 7.85023C22.8259 7.85249 21.9333 9.32153 21.5807 12.2143C21.4186 13.5439 21.4177 16.7116 21.5792 17.8742C22.0787 21.472 23.3685 23.1888 25.1698 22.6536ZM51.0863 23.9334C50.4324 23.867 48.4342 23.5343 47.7362 23.3755L47.2533 23.2657L47.291 20.6854C47.3817 14.473 47.3931 11.0817 47.3344 7.78363C47.2769 4.55281 47.2601 4.21121 47.1356 3.73329C46.9779 3.12774 46.7501 2.70534 46.4763 2.5102C46.3699 2.43439 46.0808 2.32695 45.8339 2.27145C45.0132 2.08698 45.0578 2.11656 45.0358 1.74193C45.0232 1.52613 45.0466 1.38356 45.1018 1.33982C45.1757 1.28117 51.9071 -0.00360082 52.1215 7.58656e-06C52.1831 0.00104435 52.1918 0.862273 52.1602 3.82654C52.1378 5.93039 52.135 7.65173 52.1538 7.65173C52.1727 7.65173 52.4187 7.54516 52.7004 7.41491C53.5497 7.02229 54.3324 6.85193 55.4693 6.81228C56.2263 6.78588 56.5769 6.80241 56.9653 6.88281C59.5043 7.40846 61.3833 9.488 62.0399 12.4992C62.2112 13.2847 62.275 15.2369 62.1612 16.2147C62.0643 17.0482 61.7877 18.1711 61.5 18.8998C60.414 21.6496 58.084 23.4436 54.9931 23.9098C54.2811 24.0172 52.0453 24.0307 51.0863 23.9334ZM54.8102 23.7761C56.8125 23.4757 58.2811 22.7877 59.5248 21.5675C61.3227 19.8038 62.1886 17.3147 62.0715 14.2469C62.0113 12.6674 61.7535 11.6357 61.0993 10.3557C60.213 8.62173 58.6971 7.40542 56.976 7.04725C55.6849 6.77858 54.0238 6.98902 52.7608 7.58124C52.446 7.72883 52.1447 7.84959 52.0912 7.84959C52.0063 7.84959 51.9971 7.36121 52.0188 4.00276L52.0435 0.155935L51.7791 0.208974C51.6337 0.238145 50.1503 0.514703 48.4828 0.823546C46.8152 1.13239 45.3858 1.40034 45.3063 1.41899C45.1855 1.44734 45.1643 1.49342 45.1773 1.69991C45.1917 1.93003 45.2106 1.95085 45.4536 2.00436C46.2892 2.18833 46.4379 2.25388 46.7486 2.575C47.1292 2.96838 47.3011 3.47072 47.4139 4.51903C47.5038 5.35438 47.5237 19.7465 47.4379 21.8709L47.387 23.1305L48.0667 23.2759C50.6404 23.8266 53.2058 24.0169 54.8102 23.7761ZM52.4589 22.7729C52.3257 22.7588 52.1832 22.7069 52.1423 22.6574C52.0293 22.5212 51.9069 13.5685 51.9822 10.9493L52.042 8.87184L52.5693 8.71973C53.3472 8.49531 54.1847 8.5302 54.7785 8.81174C55.9708 9.37715 56.7541 10.7738 57.1609 13.0598C57.2934 13.8044 57.2738 16.3906 57.1287 17.3109C56.8257 19.2325 56.2744 20.7156 55.5068 21.6737C55.1347 22.1382 54.5168 22.5775 54.0336 22.7211C53.7219 22.8137 53.0539 22.8357 52.4589 22.7729ZM53.7279 22.6218C54.2067 22.5309 54.5787 22.3402 54.9781 21.9809C55.979 21.0804 56.7316 19.2213 57.0276 16.9179C57.1482 15.9798 57.1319 13.842 56.9983 13.059C56.6369 10.9412 55.8603 9.54928 54.7273 8.98882C54.2573 8.75633 54.1848 8.73993 53.6274 8.73993C53.2287 8.73993 52.8857 8.78264 52.5941 8.86861L52.1576 8.99728L52.1254 11.4077C52.0841 14.4955 52.1845 22.2258 52.2687 22.4476C52.3225 22.5891 52.3817 22.6191 52.6486 22.6401C53.2767 22.6894 53.3806 22.6877 53.7279 22.6218ZM70.0357 23.9007C66.7658 23.3106 64.4273 20.9903 63.6632 17.5779C63.5649 17.1391 63.5214 16.648 63.4968 15.6978C63.4578 14.1947 63.58 13.2617 63.9677 12.1024C64.712 9.87654 66.0461 8.29925 67.984 7.35391C70.0294 6.35609 72.8259 6.29074 74.636 7.19845C76.6741 8.22044 77.8734 10.261 78.1776 13.2246C78.2186 13.6236 78.2423 14.0985 78.2304 14.2799L78.2086 14.6096L73.3312 14.6265L68.4538 14.6434L68.4724 15.2201C68.5155 16.5559 68.8025 17.7374 69.3334 18.7646C69.5747 19.2315 69.7668 19.486 70.2334 19.9574C71.2875 21.0223 72.3361 21.4346 73.9903 21.4346C75.1898 21.4346 76.0523 21.1951 76.9543 20.6116C77.207 20.4482 77.463 20.3144 77.5232 20.3144C77.6609 20.3144 77.978 20.7228 77.978 20.9002C77.978 21.1908 77.0323 22.128 76.1099 22.7514C75.3545 23.2621 74.1565 23.7244 73.1176 23.9063C72.3901 24.0336 70.7557 24.0307 70.0357 23.9007ZM72.9669 23.774C74.4941 23.5262 75.998 22.7927 77.0789 21.7685C77.6709 21.2075 77.8673 20.9368 77.785 20.795C77.5652 20.4166 77.5747 20.417 77.0137 20.7618C76.1205 21.3108 75.6728 21.4622 74.6234 21.57C73.3976 21.6958 72.2669 21.4908 71.2221 20.9533C70.529 20.5967 69.6984 19.7765 69.2833 19.0388C68.7168 18.0321 68.4094 16.8561 68.3177 15.3448C68.2792 14.7102 68.2876 14.5521 68.362 14.5049C68.4128 14.4727 70.6106 14.4463 73.2818 14.4458L78.1098 14.4447V14.2539C78.1098 13.8201 77.9675 12.6542 77.8399 12.0429C77.3271 9.5849 75.9731 7.83224 74.0424 7.12719C73.274 6.84657 72.547 6.72841 71.5889 6.72841C69.3188 6.72841 67.4648 7.4735 66.0306 8.96218C64.8871 10.1491 64.2086 11.4825 63.7946 13.3565C63.6698 13.9214 63.6488 14.2149 63.6488 15.401C63.6488 16.5784 63.6702 16.8821 63.7912 17.4267C64.5598 20.8858 66.8341 23.1638 70.1016 23.7473C70.9297 23.8952 72.1499 23.9066 72.9669 23.774ZM68.3316 13.3392C68.282 13.2589 68.4051 12.085 68.5268 11.4769C68.8202 10.0113 69.29 8.95298 69.9364 8.30128C70.2841 7.95072 70.4428 7.84144 70.7264 7.75717C70.9215 7.69918 71.1426 7.6519 71.2176 7.6521C71.52 7.65292 71.8769 7.80733 72.1425 8.05231C72.8554 8.70984 73.2633 10.1218 73.3441 12.2119L73.384 13.2436L72.6985 13.2818C71.3226 13.3585 68.3676 13.3973 68.3316 13.3392ZM72.1052 13.1506L73.2519 13.1107L73.2107 12.2957C73.0651 9.42151 72.3622 7.85086 71.2221 7.85212C69.983 7.85348 68.9928 9.44745 68.5811 12.1035C68.5305 12.4299 68.4886 12.8171 68.4879 12.9638L68.4868 13.2305L69.7226 13.2105C70.4023 13.1995 71.4745 13.1726 72.1052 13.1506ZM83.2179 23.9647C82.0436 23.8387 80.1747 23.4293 79.5525 23.1617L79.2486 23.031L79.2071 21.5243C79.1843 20.6957 79.1581 19.5877 79.1487 19.0622L79.1317 18.1067L79.3139 18.0193C79.4141 17.9713 79.6162 17.9264 79.7632 17.9196L80.0303 17.9072L80.258 18.4678C81.146 20.6547 82.1874 21.8339 83.5477 22.1926C84.0667 22.3294 85.0396 22.3306 85.4237 22.1949C86.4998 21.8148 87.0899 20.9995 87.095 19.8858C87.1011 18.5667 86.3765 17.933 83.6392 16.8631C81.9433 16.2002 81.3517 15.859 80.6474 15.1376C79.8875 14.3593 79.5228 13.4734 79.4543 12.2396C79.3716 10.7487 79.8379 9.49184 80.8713 8.42078C81.9112 7.34292 83.2612 6.75875 85.1002 6.59082C86.7197 6.44295 89.2055 6.78663 90.508 7.33848L90.7456 7.43916L90.788 8.78204C90.8113 9.52062 90.8354 10.5107 90.8415 10.9822L90.8527 11.8396L90.5336 11.9581C90.0291 12.1456 89.996 12.1221 89.7153 11.378C88.9286 9.29236 88.0146 8.3055 86.5904 8.00405C85.7225 7.82033 84.9975 8.01784 84.4705 8.58156C84.0594 9.02135 83.899 9.4119 83.8601 10.0677C83.818 10.7783 83.9449 11.1624 84.3788 11.6374C84.9136 12.2229 85.7897 12.7283 87.535 13.4581C89.6728 14.352 90.6928 15.1108 91.2473 16.2199C91.6074 16.9402 91.7094 17.5155 91.6731 18.6229C91.6459 19.4538 91.6194 19.6246 91.4304 20.1825C90.8145 22.0015 89.4239 23.1991 87.2758 23.7605C86.5482 23.9507 86.4443 23.9605 84.9975 23.9764C84.1637 23.9855 83.3629 23.9802 83.2179 23.9647ZM86.3487 23.7799C89.149 23.3543 90.957 21.8518 91.4313 19.556C91.6603 18.4474 91.5534 17.2147 91.1568 16.3903C90.6016 15.2362 89.6627 14.5394 87.3373 13.5557C85.6102 12.8251 84.575 12.2057 84.151 11.6495C83.8007 11.19 83.6868 10.8367 83.6915 10.2238C83.6986 9.29951 84.0487 8.59156 84.7172 8.15015C85.2769 7.78058 85.9782 7.69042 86.7948 7.88307C87.7816 8.11587 88.5237 8.72191 89.1939 9.84233C89.4071 10.1989 89.8456 11.1998 90.0592 11.8175C90.0923 11.9133 90.1304 11.9173 90.3606 11.8493C90.5055 11.8065 90.6445 11.7511 90.6694 11.7262C90.6943 11.7013 90.6926 10.7565 90.6658 9.62663L90.6169 7.57235L90.3777 7.47103C89.9741 7.30005 88.9208 7.01333 88.2271 6.88564C87.7051 6.78954 87.2459 6.76466 86.0191 6.76601C84.5548 6.76762 84.4353 6.7772 83.8305 6.94138C82.0738 7.41827 80.7713 8.41025 80.0907 9.78971C79.729 10.5228 79.604 11.0879 79.6081 11.9716C79.6139 13.2262 79.9556 14.1523 80.7112 14.9614C81.3614 15.6577 82.2066 16.1544 83.6463 16.6864C84.7793 17.105 85.9488 17.6895 86.3921 18.0586C86.6526 18.2755 86.8573 18.5227 87.0099 18.8046C87.227 19.2056 87.2382 19.2586 87.2383 19.8858C87.2383 20.49 87.2209 20.5823 87.0292 20.9872C86.5284 22.045 85.5265 22.5702 84.2142 22.4628C82.431 22.3169 81.1757 21.137 80.1536 18.6461C79.887 17.9964 79.8687 17.9829 79.4634 18.1371L79.2774 18.2079L79.3239 20.5307C79.3652 22.5923 79.3829 22.8631 79.481 22.9384C79.7741 23.1633 81.6711 23.6138 82.9872 23.7711C84.0088 23.8932 85.5761 23.8973 86.3487 23.7799ZM0.0876076 23.5683C0.0328075 23.5462 0.00521883 23.3818 0.00521883 23.0775C0.00521883 22.531 -0.0295891 22.5555 1.02684 22.3594C1.83709 22.209 2.12698 22.0551 2.48478 21.5857C3.17851 20.6756 3.32845 18.9233 3.33001 11.7078C3.33147 4.93153 3.20101 3.50605 2.48353 2.45875C2.16521 1.9941 1.62876 1.7418 0.73024 1.63413L0.0381743 1.55121L0.0190872 1.01059L0 0.469963L0.21682 0.431303C0.336071 0.41004 4.52589 0.401056 9.52754 0.411337L18.6214 0.430031L18.6641 0.693837C18.6875 0.838931 18.726 2.32719 18.7496 4.00108L18.7925 7.04452L18.3236 7.18702C17.6178 7.40153 17.6221 7.40414 17.3046 6.56353C16.5247 4.49873 15.6304 3.30895 14.4068 2.70816C13.5628 2.2938 13.1726 2.2437 10.7892 2.2437H8.71496L8.6792 2.58995C8.61215 3.23924 8.50628 7.41599 8.50701 9.38296L8.50774 11.345L9.11742 11.3415C9.45274 11.3396 10.114 11.3149 10.5868 11.2867C11.2976 11.2442 11.5088 11.2064 11.8061 11.0687C12.5368 10.7302 13.0338 9.98533 13.3384 8.7725L13.4956 8.14637L14.0336 8.12721L14.5716 8.10806V12.0705V16.0329L14.0334 16.0138L13.4952 15.9946L13.3424 15.3681C13.0554 14.1909 12.503 13.3481 11.8204 13.046C11.5052 12.9064 10.7252 12.8271 9.21628 12.7812L8.50774 12.7596V14.2483C8.50774 15.8705 8.59686 18.065 8.71111 19.256C8.87038 20.9163 9.2944 21.8338 10.0559 22.1658C10.2013 22.2292 10.6614 22.3322 11.0783 22.3946C11.4952 22.4571 11.8882 22.535 11.9516 22.5678C12.1125 22.6509 12.122 23.5108 11.9627 23.572C11.838 23.6199 0.206346 23.6163 0.0876076 23.5683ZM11.9351 23.0514C11.9351 22.8519 11.9173 22.6887 11.8955 22.6887C11.5815 22.6887 10.118 22.3729 9.88279 22.2544C9.04584 21.8328 8.65894 20.8305 8.50881 18.6951C8.4021 17.1772 8.2959 12.7177 8.36483 12.6488C8.42733 12.5862 11.214 12.6973 11.5396 12.7754C12.4401 12.9911 13.1342 13.8774 13.4817 15.2554L13.6349 15.8627L14.0373 15.8823L14.4397 15.902V12.0736V8.2453H14.0113C13.6108 8.2453 13.5829 8.25497 13.5829 8.3939C13.5829 8.64379 13.3329 9.43453 13.0962 9.93319C12.7255 10.7142 12.2035 11.1856 11.5396 11.3388C11.3765 11.3765 10.6065 11.4367 9.82845 11.4728C8.73112 11.5236 8.40188 11.5203 8.36049 11.4582C8.284 11.3432 8.45836 2.65995 8.54526 2.25648L8.57802 2.10438L10.9981 2.12457L13.4181 2.14477L13.9813 2.34658C15.2857 2.81402 16.2243 3.76855 17.0085 5.42517C17.1846 5.79735 17.4105 6.33929 17.5103 6.62948C17.6101 6.91967 17.6984 7.16632 17.7065 7.1776C17.7147 7.18888 17.9312 7.13433 18.1877 7.05638L18.654 6.91465L18.6212 4.76054C18.6031 3.57578 18.5713 2.15384 18.5504 1.60067L18.5123 0.59491H9.32154H0.130751L0.150374 1.00682L0.169996 1.41872L0.763196 1.49296C1.55453 1.592 1.84468 1.67826 2.16333 1.90924C2.64637 2.25936 2.94343 2.77371 3.1305 3.58381C3.42112 4.84239 3.52572 7.68073 3.47727 12.9938C3.42609 18.6078 3.35533 19.7754 2.99765 20.908C2.70347 21.8395 2.15595 22.3333 1.25159 22.4828C1.00269 22.5239 0.650091 22.5895 0.468041 22.6286L0.137041 22.6996V23.0569V23.4142H6.03608H11.9351V23.0514ZM32.5785 23.5559C32.5184 23.5176 32.4987 23.3655 32.5126 23.0455L32.5323 22.5898L32.763 22.5406C32.8899 22.5136 33.1624 22.4599 33.3686 22.4214C34.0068 22.3021 34.3735 21.9554 34.5799 21.2766C34.748 20.7235 34.8222 18.9541 34.826 15.401C34.8308 11.0555 34.7403 10.0293 34.3012 9.44756C34.0632 9.13227 33.8916 9.04261 33.3141 8.93171C33.0291 8.87697 32.7292 8.81828 32.6477 8.80129C32.5156 8.77377 32.4994 8.73071 32.4994 8.4075C32.4994 8.09322 32.5192 8.03644 32.6477 7.98359C32.8449 7.90242 39.3744 6.59651 39.583 6.59651H39.7457L39.7138 7.56929C39.6962 8.10432 39.6682 8.88338 39.6514 9.30052L39.621 10.059L39.8575 9.63212C40.6148 8.26571 41.464 7.41749 42.5932 6.89966C43.2131 6.6154 43.6267 6.53055 44.3926 6.53055C45.3009 6.53055 46.2088 6.82709 46.2088 7.12373C46.2088 7.32318 44.6086 11.5541 44.5204 11.588C44.4773 11.6045 44.1648 11.4849 43.826 11.3222C43.1193 10.9829 42.4563 10.817 41.8127 10.8184C41.0113 10.8201 40.116 11.1155 39.7626 11.4948C39.6114 11.6571 39.6107 11.6668 39.5731 14.09C39.5359 16.4896 39.6158 19.4167 39.7507 20.5939C39.8656 21.5968 40.1319 22.0906 40.6819 22.3205C40.8654 22.3972 42.0264 22.5563 42.4053 22.5567C42.434 22.5568 42.4488 22.7868 42.4382 23.0679L42.419 23.579L37.5415 23.5948C34.859 23.6034 32.6256 23.5859 32.5785 23.5559ZM42.3201 23.0571V22.6999L41.8093 22.6568C40.6311 22.5572 40.3083 22.4389 39.9989 21.993C39.5506 21.3469 39.453 20.1547 39.453 15.3239V11.5535L39.6164 11.3795C39.8225 11.1599 40.467 10.8535 40.9227 10.7584C41.8481 10.5653 43.0311 10.7321 43.9563 11.1861C44.2219 11.3164 44.4503 11.4119 44.4639 11.3983C44.4911 11.3711 46.0107 7.35282 46.0579 7.18333C46.0793 7.10641 45.9917 7.0394 45.7361 6.93705C45.189 6.71799 44.7146 6.64287 44.1026 6.67841C42.4657 6.77346 41.0129 7.86163 39.9665 9.77654C39.7928 10.0944 39.6129 10.3548 39.5667 10.3551C39.4996 10.3556 39.4918 9.99043 39.5279 8.53816L39.573 6.72058L39.4141 6.75806C39.3267 6.77868 38.0095 7.0457 36.487 7.35144C33.2215 8.00718 32.7676 8.10274 32.6898 8.15089C32.6575 8.17082 32.6312 8.28868 32.6312 8.41281C32.6312 8.66185 32.6021 8.64741 33.3441 8.76682C34.364 8.93095 34.7243 9.42858 34.8764 10.8834C35.0747 12.7802 34.9955 20.1745 34.766 21.184C34.6487 21.7001 34.3455 22.1973 34.0404 22.3739C33.9273 22.4394 33.5714 22.5444 33.2494 22.6073L32.6641 22.7217L32.6442 23.0679L32.6243 23.4142H37.4722H42.3201V23.0571Z" fill="black"/>
<path d="M11.9351 23.0514C11.9351 22.8519 11.9173 22.6887 11.8955 22.6887C11.5815 22.6887 10.118 22.3729 9.88279 22.2544C9.04584 21.8328 8.65894 20.8305 8.50881 18.6951C8.4021 17.1772 8.2959 12.7177 8.36483 12.6488C8.42733 12.5862 11.214 12.6973 11.5396 12.7754C12.4401 12.9911 13.1342 13.8774 13.4817 15.2554L13.6349 15.8627L14.0373 15.8823L14.4397 15.902V12.0736V8.2453H14.0113C13.6108 8.2453 13.5829 8.25497 13.5829 8.3939C13.5829 8.64379 13.3329 9.43453 13.0962 9.93319C12.7255 10.7142 12.2035 11.1856 11.5396 11.3388C11.3765 11.3765 10.6065 11.4367 9.82845 11.4728C8.73112 11.5236 8.40188 11.5203 8.36049 11.4582C8.284 11.3432 8.45836 2.65995 8.54526 2.25648L8.57802 2.10438L10.9981 2.12457L13.4181 2.14477L13.9813 2.34658C15.2857 2.81402 16.2243 3.76855 17.0085 5.42517C17.1846 5.79735 17.4105 6.33929 17.5103 6.62948C17.6101 6.91967 17.6984 7.16632 17.7065 7.1776C17.7147 7.18888 17.9312 7.13433 18.1877 7.05638L18.654 6.91465L18.6212 4.76054C18.6031 3.57578 18.5713 2.15384 18.5504 1.60067L18.5123 0.59491H9.32154H0.130751L0.150374 1.00682L0.169996 1.41872L0.763196 1.49296C1.55453 1.592 1.84468 1.67826 2.16333 1.90924C2.64637 2.25936 2.94343 2.77371 3.1305 3.58381C3.42112 4.84239 3.52572 7.68073 3.47727 12.9938C3.42609 18.6078 3.35533 19.7754 2.99765 20.908C2.70347 21.8395 2.15595 22.3333 1.25159 22.4828C1.00269 22.5239 0.650091 22.5895 0.468041 22.6286L0.137041 22.6996V23.0569V23.4142H6.03608H11.9351V23.0514Z" fill="black"/>
<path fill-rule="evenodd" clip-rule="evenodd" d="M26.2378 23.688C27.4073 23.4148 28.3396 22.9978 29.173 22.375C31.2 20.8602 32.3108 18.5374 32.4133 15.5989C32.5144 12.702 31.6413 10.2326 29.953 8.6404C28.5825 7.34794 26.8555 6.72841 24.623 6.72841C22.2565 6.72841 20.3506 7.46261 18.8844 8.93913C17.3138 10.5208 16.483 12.7271 16.483 15.3167C16.483 18.0031 17.2336 20.1717 18.6892 21.6911C19.4918 22.5288 20.273 23.0311 21.3933 23.4299C21.7894 23.5709 22.0809 23.6386 23.14 23.8356C23.2306 23.8525 23.8386 23.8556 24.4912 23.8426C25.3745 23.8249 25.8207 23.7854 26.2378 23.688ZM21.5018 18.4018C21.8866 20.7655 22.6543 22.2593 23.737 22.7507C24.1732 22.9488 24.9717 22.9377 25.4231 22.7274C26.6683 22.1473 27.3358 20.478 27.5534 17.4002C27.8567 13.1111 27.1538 9.53127 25.7612 8.27234C25.1341 7.70549 24.1589 7.51993 23.4552 7.83358C22.4286 8.29116 21.7693 9.64576 21.4571 11.9386C21.2349 13.5713 21.2579 16.9034 21.5018 18.4018Z" fill="black"/>
<path d="M42.3201 23.0571V22.6999L41.8093 22.6568C40.6311 22.5572 40.3083 22.4389 39.9989 21.993C39.5506 21.3469 39.453 20.1547 39.453 15.3239V11.5535L39.6164 11.3795C39.8225 11.1599 40.467 10.8535 40.9227 10.7584C41.8481 10.5653 43.0311 10.7321 43.9563 11.1861C44.2219 11.3164 44.4503 11.4119 44.4639 11.3983C44.4911 11.3711 46.0107 7.35282 46.0579 7.18333C46.0793 7.10641 45.9917 7.0394 45.7361 6.93705C45.189 6.71799 44.7146 6.64287 44.1026 6.67841C42.4657 6.77346 41.0129 7.86163 39.9665 9.77654C39.7928 10.0944 39.6129 10.3548 39.5667 10.3551C39.4996 10.3556 39.4918 9.99043 39.5279 8.53816L39.573 6.72058L39.4141 6.75806C39.3267 6.77868 38.0095 7.0457 36.487 7.35144C33.2215 8.00718 32.7676 8.10274 32.6898 8.15089C32.6575 8.17082 32.6312 8.28868 32.6312 8.41281C32.6312 8.66185 32.6021 8.64741 33.3441 8.76682C34.364 8.93095 34.7243 9.42858 34.8764 10.8834C35.0747 12.7802 34.9955 20.1745 34.766 21.184C34.6487 21.7001 34.3455 22.1973 34.0404 22.3739C33.9273 22.4394 33.5714 22.5444 33.2494 22.6073L32.6641 22.7217L32.6442 23.0679L32.6243 23.4142H37.4722H42.3201V23.0571Z" fill="black"/>
<path fill-rule="evenodd" clip-rule="evenodd" d="M54.8102 23.7761C56.8125 23.4757 58.2811 22.7877 59.5248 21.5675C61.3227 19.8038 62.1886 17.3147 62.0715 14.2469C62.0113 12.6674 61.7535 11.6357 61.0993 10.3557C60.213 8.62173 58.6971 7.40542 56.976 7.04725C55.6849 6.77858 54.0238 6.98902 52.7608 7.58124C52.446 7.72883 52.1447 7.84959 52.0912 7.84959C52.0063 7.84959 51.9971 7.36121 52.0188 4.00276L52.0435 0.155935L51.7791 0.208974C51.6337 0.238145 50.1503 0.514703 48.4828 0.823546C46.8152 1.13239 45.3858 1.40034 45.3063 1.41899C45.1855 1.44734 45.1643 1.49342 45.1773 1.69991C45.1917 1.93003 45.2106 1.95085 45.4536 2.00436C46.2892 2.18833 46.4379 2.25388 46.7486 2.575C47.1292 2.96838 47.3011 3.47072 47.4139 4.51903C47.5038 5.35438 47.5237 19.7465 47.4379 21.8709L47.387 23.1305L48.0667 23.2759C50.6404 23.8266 53.2058 24.0169 54.8102 23.7761ZM52.1423 22.6574C52.1832 22.7069 52.3257 22.7588 52.4589 22.7729C53.0539 22.8357 53.7219 22.8137 54.0336 22.7211C54.5168 22.5775 55.1347 22.1382 55.5068 21.6737C56.2744 20.7156 56.8257 19.2325 57.1287 17.3109C57.2738 16.3906 57.2934 13.8044 57.1609 13.0598C56.7541 10.7738 55.9708 9.37715 54.7785 8.81174C54.1847 8.5302 53.3472 8.49531 52.5693 8.71973L52.042 8.87184L51.9822 10.9493C51.9069 13.5685 52.0293 22.5212 52.1423 22.6574Z" fill="black"/>
<path d="M86.3487 23.7799C89.149 23.3543 90.957 21.8518 91.4313 19.556C91.6603 18.4474 91.5534 17.2147 91.1568 16.3903C90.6016 15.2362 89.6627 14.5394 87.3373 13.5557C85.6102 12.8251 84.575 12.2057 84.151 11.6495C83.8007 11.19 83.6868 10.8367 83.6915 10.2238C83.6986 9.29951 84.0487 8.59156 84.7172 8.15015C85.2769 7.78058 85.9782 7.69042 86.7948 7.88307C87.7816 8.11587 88.5237 8.72191 89.1939 9.84233C89.4071 10.1989 89.8456 11.1998 90.0592 11.8175C90.0923 11.9133 90.1304 11.9173 90.3606 11.8493C90.5055 11.8065 90.6445 11.7511 90.6694 11.7262C90.6943 11.7013 90.6926 10.7565 90.6658 9.62663L90.6169 7.57235L90.3777 7.47103C89.9741 7.30005 88.9208 7.01333 88.2271 6.88564C87.7051 6.78954 87.2459 6.76466 86.0191 6.76601C84.5548 6.76762 84.4353 6.7772 83.8305 6.94138C82.0738 7.41827 80.7713 8.41025 80.0907 9.78971C79.729 10.5228 79.604 11.0879 79.6081 11.9716C79.6139 13.2262 79.9556 14.1523 80.7112 14.9614C81.3614 15.6577 82.2066 16.1544 83.6463 16.6864C84.7793 17.105 85.9488 17.6895 86.3921 18.0586C86.6526 18.2755 86.8573 18.5227 87.0099 18.8046C87.227 19.2056 87.2382 19.2586 87.2383 19.8858C87.2383 20.49 87.2209 20.5823 87.0292 20.9872C86.5284 22.045 85.5265 22.5702 84.2142 22.4628C82.431 22.3169 81.1757 21.137 80.1536 18.6461C79.887 17.9964 79.8687 17.9829 79.4634 18.1371L79.2774 18.2079L79.3239 20.5307C79.3652 22.5923 79.3829 22.8631 79.481 22.9384C79.7741 23.1633 81.6711 23.6138 82.9872 23.7711C84.0088 23.8932 85.5761 23.8973 86.3487 23.7799Z" fill="black"/>
<path fill-rule="evenodd" clip-rule="evenodd" d="M72.9669 23.774C74.4941 23.5262 75.998 22.7927 77.0789 21.7685C77.6709 21.2075 77.8673 20.9368 77.785 20.795C77.5652 20.4166 77.5747 20.417 77.0137 20.7618C76.1205 21.3108 75.6728 21.4622 74.6234 21.57C73.3976 21.6958 72.2669 21.4908 71.2221 20.9533C70.529 20.5967 69.6984 19.7765 69.2833 19.0388C68.7168 18.0321 68.4094 16.8561 68.3177 15.3448C68.2792 14.7102 68.2876 14.5521 68.362 14.5049C68.4128 14.4727 70.6106 14.4463 73.2818 14.4458L78.1098 14.4447V14.2539C78.1098 13.8201 77.9675 12.6542 77.8399 12.0429C77.3271 9.5849 75.9731 7.83224 74.0424 7.12719C73.274 6.84657 72.547 6.72841 71.5889 6.72841C69.3188 6.72841 67.4648 7.4735 66.0306 8.96218C64.8871 10.1491 64.2086 11.4825 63.7946 13.3565C63.6698 13.9214 63.6488 14.2149 63.6488 15.401C63.6488 16.5784 63.6702 16.8821 63.7912 17.4267C64.5598 20.8858 66.8341 23.1638 70.1016 23.7473C70.9297 23.8952 72.1499 23.9066 72.9669 23.774ZM68.5268 11.4769C68.4051 12.085 68.282 13.2589 68.3316 13.3392C68.3676 13.3973 71.3226 13.3585 72.6985 13.2818L73.384 13.2436L73.3441 12.2119C73.2633 10.1218 72.8554 8.70984 72.1425 8.05231C71.8769 7.80733 71.52 7.65292 71.2176 7.6521C71.1426 7.6519 70.9215 7.69918 70.7264 7.75717C70.4428 7.84144 70.2841 7.95072 69.9364 8.30128C69.29 8.95298 68.8202 10.0113 68.5268 11.4769Z" fill="black"/>
</svg>
