<svg width="164" height="48" viewBox="0 0 164 48" fill="none" xmlns="http://www.w3.org/2000/svg">
<g filter="url(#filter0_b_49:633)">
<rect width="164" height="48" rx="8" fill="#ECEFF2"/>
<path d="M81.8087 25.7956C79.471 25.7956 77.5656 27.5738 77.5656 30.0228C77.5656 32.457 79.471 34.2501 81.8087 34.2501C84.1474 34.2501 86.0528 32.457 86.0528 30.0228C86.0518 27.5738 84.1465 25.7956 81.8087 25.7956ZM81.8087 32.5862C80.5275 32.5862 79.4233 31.5296 79.4233 30.0238C79.4233 28.5021 80.5285 27.4614 81.8087 27.4614C83.0899 27.4614 84.1942 28.5021 84.1942 30.0238C84.1942 31.5287 83.0899 32.5862 81.8087 32.5862ZM72.5512 25.7956C70.2134 25.7956 68.308 27.5738 68.308 30.0228C68.308 32.457 70.2134 34.2501 72.5512 34.2501C74.8899 34.2501 76.7953 32.457 76.7953 30.0228C76.7953 27.5738 74.8899 25.7956 72.5512 25.7956ZM72.5512 32.5862C71.27 32.5862 70.1657 31.5296 70.1657 30.0238C70.1657 28.5021 71.271 27.4614 72.5512 27.4614C73.8323 27.4614 74.9366 28.5021 74.9366 30.0238C74.9376 31.5287 73.8323 32.5862 72.5512 32.5862ZM61.5403 27.0937V28.8868H65.8321C65.7039 29.8956 65.3679 30.6321 64.8551 31.144C64.2309 31.7682 63.2538 32.457 61.5403 32.457C58.8984 32.457 56.833 30.327 56.833 27.6851C56.833 25.0432 58.8984 22.9132 61.5403 22.9132C62.9656 22.9132 64.0063 23.4738 64.7746 24.1944L66.0399 22.9291C64.9664 21.9043 63.5421 21.1201 61.5403 21.1201C57.9214 21.1201 54.8789 24.0662 54.8789 27.6851C54.8789 31.304 57.9214 34.2501 61.5403 34.2501C63.4934 34.2501 64.9674 33.609 66.1194 32.4083C67.3041 31.2235 67.6729 29.5577 67.6729 28.2129C67.6729 27.7974 67.6411 27.4127 67.5765 27.0927H61.5403V27.0937ZM106.574 28.4862C106.222 27.542 105.148 25.7956 102.955 25.7956C100.777 25.7956 98.9671 27.5092 98.9671 30.0228C98.9671 32.3924 100.761 34.2501 103.163 34.2501C105.1 34.2501 106.221 33.0653 106.686 32.3765L105.245 31.4153C104.765 32.12 104.108 32.5842 103.163 32.5842C102.218 32.5842 101.545 32.1519 101.113 31.303L106.766 28.9653L106.574 28.4862ZM100.809 29.8956C100.761 28.2616 102.074 27.4296 103.019 27.4296C103.756 27.4296 104.38 27.7984 104.589 28.3262L100.809 29.8956ZM96.2139 33.9946H98.0706V21.5694H96.2139V33.9946ZM93.1704 26.7408H93.1068C92.6904 26.2439 91.8892 25.7956 90.8814 25.7956C88.7673 25.7956 86.8301 27.6533 86.8301 30.0397C86.8301 32.4093 88.7673 34.2511 90.8814 34.2511C91.8902 34.2511 92.6904 33.8028 93.1068 33.2909H93.1704V33.8992C93.1704 35.5163 92.3057 36.3811 90.9132 36.3811C89.7761 36.3811 89.0714 35.565 88.7832 34.8762L87.166 35.5491C87.6302 36.6693 88.8627 38.0469 90.9132 38.0469C93.0909 38.0469 94.9327 36.7657 94.9327 33.6428V26.053H93.1714V26.7408H93.1704ZM91.0414 32.5862C89.7602 32.5862 88.6878 31.5127 88.6878 30.0397C88.6878 28.5498 89.7602 27.4614 91.0414 27.4614C92.3057 27.4614 93.2986 28.5498 93.2986 30.0397C93.2986 31.5127 92.3057 32.5862 91.0414 32.5862ZM115.275 21.5694H110.831V33.9946H112.684V29.2873H115.274C117.329 29.2873 119.351 27.7994 119.351 25.4288C119.351 23.0583 117.33 21.5694 115.275 21.5694ZM115.322 27.5579H112.684V23.2988H115.322C116.709 23.2988 117.496 24.4468 117.496 25.4288C117.496 26.391 116.709 27.5579 115.322 27.5579ZM126.784 25.7737C125.442 25.7737 124.051 26.3651 123.476 27.6761L125.122 28.363C125.473 27.6761 126.129 27.4515 126.816 27.4515C127.775 27.4515 128.75 28.027 128.766 29.0498V29.178C128.43 28.9862 127.711 28.6989 126.832 28.6989C125.058 28.6989 123.251 29.674 123.251 31.4959C123.251 33.1587 124.706 34.2292 126.336 34.2292C127.583 34.2292 128.27 33.6696 128.702 33.0136H128.765V33.9727H130.556V29.2088C130.557 27.0042 128.91 25.7737 126.784 25.7737ZM126.56 32.5832C125.954 32.5832 125.106 32.2791 125.106 31.5277C125.106 30.5685 126.161 30.2007 127.073 30.2007C127.887 30.2007 128.271 30.3767 128.766 30.6162C128.622 31.7682 127.631 32.5832 126.56 32.5832ZM137.079 26.0451L134.953 31.4322H134.889L132.683 26.0451H130.685L133.994 33.5742L132.107 37.7626H134.041L139.141 26.0451H137.079ZM120.375 33.9946H122.228V21.5694H120.375V33.9946Z" fill="#1C1C1D"/>
<path d="M61.2187 14.3575C61.2187 15.1904 60.9722 15.8534 60.4782 16.3483C59.9176 16.9368 59.1861 17.231 58.2876 17.231C57.4268 17.231 56.6943 16.9328 56.0929 16.3364C55.4906 15.7391 55.1895 14.9996 55.1895 14.1169C55.1895 13.2333 55.4906 12.4938 56.0929 11.8975C56.6943 11.3001 57.4268 11.0019 58.2876 11.0019C58.715 11.0019 59.1235 11.0854 59.5111 11.2514C59.8997 11.4184 60.2108 11.6401 60.4434 11.9174L59.9196 12.4422C59.525 11.97 58.9813 11.7345 58.2866 11.7345C57.6584 11.7345 57.1157 11.9551 56.6575 12.3964C56.1993 12.8377 55.9707 13.4113 55.9707 14.116C55.9707 14.8207 56.1993 15.3942 56.6575 15.8355C57.1157 16.2768 57.6584 16.4974 58.2866 16.4974C58.9525 16.4974 59.5081 16.2758 59.9524 15.8315C60.2407 15.5423 60.4076 15.1397 60.4524 14.6239H58.2866V13.9072H61.1759C61.2058 14.0633 61.2187 14.2134 61.2187 14.3575Z" fill="#1C1C1D"/>
<path d="M65.8008 11.8667H63.0854V13.7572H65.5345V14.4738H63.0854V16.3643H65.8008V17.0978H62.3191V11.1342H65.8008V11.8667Z" fill="#1C1C1D"/>
<path d="M69.032 17.0978H68.2657V11.8667H66.5999V11.1342H70.6979V11.8667H69.032V17.0978Z" fill="#1C1C1D"/>
<path d="M73.6628 17.0978V11.1342H74.4291V17.0978H73.6628Z" fill="#1C1C1D"/>
<path d="M77.8275 17.0978H77.0612V11.8667H75.3953V11.1342H79.4934V11.8667H77.8275V17.0978Z" fill="#1C1C1D"/>
<path d="M87.2508 16.3275C86.6644 16.9298 85.9359 17.231 85.0642 17.231C84.1925 17.231 83.4639 16.9298 82.8785 16.3275C82.2921 15.7252 81.9998 14.9877 81.9998 14.116C81.9998 13.2443 82.2921 12.5068 82.8785 11.9045C83.4639 11.3022 84.1925 11 85.0642 11C85.9309 11 86.6585 11.3032 87.2469 11.9085C87.8353 12.5138 88.1295 13.2493 88.1295 14.116C88.1295 14.9877 87.8363 15.7252 87.2508 16.3275ZM83.444 15.8276C83.8854 16.2748 84.4251 16.4975 85.0642 16.4975C85.7033 16.4975 86.244 16.2738 86.6843 15.8276C87.1256 15.3803 87.3472 14.8098 87.3472 14.116C87.3472 13.4222 87.1256 12.8517 86.6843 12.4044C86.244 11.9572 85.7033 11.7345 85.0642 11.7345C84.4251 11.7345 83.8854 11.9582 83.444 12.4044C83.0037 12.8517 82.7821 13.4222 82.7821 14.116C82.7821 14.8098 83.0037 15.3803 83.444 15.8276Z" fill="#1C1C1D"/>
<path d="M89.2049 17.0978V11.1342H90.1373L93.0356 15.7729H93.0684L93.0356 14.6239V11.1342H93.8019V17.0978H93.0018L89.9693 12.2335H89.9365L89.9693 13.3825V17.0978H89.2049Z" fill="#1C1C1D"/>
<path d="M61.2187 14.3575C61.2187 15.1904 60.9722 15.8534 60.4782 16.3483C59.9176 16.9368 59.1861 17.231 58.2876 17.231C57.4268 17.231 56.6943 16.9328 56.0929 16.3364C55.4906 15.7391 55.1895 14.9996 55.1895 14.1169C55.1895 13.2333 55.4906 12.4938 56.0929 11.8975C56.6943 11.3001 57.4268 11.0019 58.2876 11.0019C58.715 11.0019 59.1235 11.0854 59.5111 11.2514C59.8997 11.4184 60.2108 11.6401 60.4434 11.9174L59.9196 12.4422C59.525 11.97 58.9813 11.7345 58.2866 11.7345C57.6584 11.7345 57.1157 11.9551 56.6575 12.3964C56.1993 12.8377 55.9707 13.4113 55.9707 14.116C55.9707 14.8207 56.1993 15.3942 56.6575 15.8355C57.1157 16.2768 57.6584 16.4974 58.2866 16.4974C58.9525 16.4974 59.5081 16.2758 59.9524 15.8315C60.2407 15.5423 60.4076 15.1397 60.4524 14.6239H58.2866V13.9072H61.1759C61.2058 14.0633 61.2187 14.2134 61.2187 14.3575Z" stroke="#1C1C1D" stroke-width="0.24" stroke-miterlimit="10"/>
<path d="M65.8008 11.8667H63.0854V13.7572H65.5345V14.4738H63.0854V16.3643H65.8008V17.0978H62.3191V11.1342H65.8008V11.8667Z" stroke="#1C1C1D" stroke-width="0.24" stroke-miterlimit="10"/>
<path d="M69.032 17.0978H68.2657V11.8667H66.5999V11.1342H70.6979V11.8667H69.032V17.0978Z" stroke="#1C1C1D" stroke-width="0.24" stroke-miterlimit="10"/>
<path d="M73.6628 17.0978V11.1342H74.4291V17.0978H73.6628Z" stroke="#1C1C1D" stroke-width="0.24" stroke-miterlimit="10"/>
<path d="M77.8275 17.0978H77.0612V11.8667H75.3953V11.1342H79.4934V11.8667H77.8275V17.0978Z" stroke="#1C1C1D" stroke-width="0.24" stroke-miterlimit="10"/>
<path d="M87.2508 16.3275C86.6644 16.9298 85.9359 17.231 85.0642 17.231C84.1925 17.231 83.4639 16.9298 82.8785 16.3275C82.2921 15.7252 81.9998 14.9877 81.9998 14.116C81.9998 13.2443 82.2921 12.5068 82.8785 11.9045C83.4639 11.3022 84.1925 11 85.0642 11C85.9309 11 86.6585 11.3032 87.2469 11.9085C87.8353 12.5138 88.1295 13.2493 88.1295 14.116C88.1295 14.9877 87.8363 15.7252 87.2508 16.3275ZM83.444 15.8276C83.8854 16.2748 84.4251 16.4975 85.0642 16.4975C85.7033 16.4975 86.244 16.2738 86.6843 15.8276C87.1256 15.3803 87.3472 14.8098 87.3472 14.116C87.3472 13.4222 87.1256 12.8517 86.6843 12.4044C86.244 11.9572 85.7033 11.7345 85.0642 11.7345C84.4251 11.7345 83.8854 11.9582 83.444 12.4044C83.0037 12.8517 82.7821 13.4222 82.7821 14.116C82.7821 14.8098 83.0037 15.3803 83.444 15.8276Z" stroke="#1C1C1D" stroke-width="0.24" stroke-miterlimit="10"/>
<path d="M89.2049 17.0978V11.1342H90.1373L93.0356 15.7729H93.0684L93.0356 14.6239V11.1342H93.8019V17.0978H93.0018L89.9693 12.2335H89.9365L89.9693 13.3825V17.0978H89.2049Z" stroke="#1C1C1D" stroke-width="0.24" stroke-miterlimit="10"/>
<path fill-rule="evenodd" clip-rule="evenodd" d="M24.1405 11.1972C24.0496 11.4427 24 11.7333 24 12.0646V34.0465C24 34.3788 24.0497 34.6697 24.1408 34.9153L35.9988 23.0556L24.1405 11.1972ZM24.9803 35.7729C25.4079 35.9112 25.9445 35.8342 26.5256 35.5047L40.5044 27.5612L36.8474 23.9041L24.9803 35.7729ZM41.5872 26.9469L45.9084 24.4918C47.2969 23.7016 47.2969 22.4105 45.9084 21.6213L41.5857 19.1651L37.6958 23.0555L41.5872 26.9469ZM40.5036 18.5502L26.5256 10.6075C25.9442 10.2771 25.4073 10.2005 24.9796 10.3393L36.8473 22.207L40.5036 18.5502Z" fill="#1C1C1D"/>
</g>
<defs>
<filter id="filter0_b_49:633" x="-30" y="-30" width="224" height="108" filterUnits="userSpaceOnUse" color-interpolation-filters="sRGB">
<feFlood flood-opacity="0" result="BackgroundImageFix"/>
<feGaussianBlur in="BackgroundImage" stdDeviation="15"/>
<feComposite in2="SourceAlpha" operator="in" result="effect1_backgroundBlur_49:633"/>
<feBlend mode="normal" in="SourceGraphic" in2="effect1_backgroundBlur_49:633" result="shape"/>
</filter>
</defs>
</svg>
