<svg width="48" height="48" viewBox="0 0 48 48" fill="none" xmlns="http://www.w3.org/2000/svg">
<path d="M2.28571 0H0V2.28571H2.28571V0Z" fill="#1C1C1D"/>
<path d="M4.57143 0H2.28571V2.28571H4.57143V0Z" fill="#1C1C1D"/>
<path d="M6.85714 0H4.57143V2.28571H6.85714V0Z" fill="#1C1C1D"/>
<path d="M9.14286 0H6.85714V2.28571H9.14286V0Z" fill="#1C1C1D"/>
<path d="M11.4286 0H9.14286V2.28571H11.4286V0Z" fill="#1C1C1D"/>
<path d="M13.7143 0H11.4286V2.28571H13.7143V0Z" fill="#1C1C1D"/>
<path d="M16 0H13.7143V2.28571H16V0Z" fill="#1C1C1D"/>
<path d="M20.5714 0H18.2857V2.28571H20.5714V0Z" fill="#1C1C1D"/>
<path d="M22.8571 0H20.5714V2.28571H22.8571V0Z" fill="#1C1C1D"/>
<path d="M34.2857 0H32V2.28571H34.2857V0Z" fill="#1C1C1D"/>
<path d="M36.5714 0H34.2857V2.28571H36.5714V0Z" fill="#1C1C1D"/>
<path d="M38.8571 0H36.5714V2.28571H38.8571V0Z" fill="#1C1C1D"/>
<path d="M41.1429 0H38.8571V2.28571H41.1429V0Z" fill="#1C1C1D"/>
<path d="M43.4286 0H41.1429V2.28571H43.4286V0Z" fill="#1C1C1D"/>
<path d="M45.7143 0H43.4286V2.28571H45.7143V0Z" fill="#1C1C1D"/>
<path d="M48 0H45.7143V2.28571H48V0Z" fill="#1C1C1D"/>
<path d="M2.28571 2.28571H0V4.57143H2.28571V2.28571Z" fill="#1C1C1D"/>
<path d="M16 2.28571H13.7143V4.57143H16V2.28571Z" fill="#1C1C1D"/>
<path d="M25.1429 2.28571H22.8571L22.8571 4.57143H25.1429V2.28571Z" fill="#1C1C1D"/>
<path d="M27.4286 2.28571H25.1429V4.57143H27.4286V2.28571Z" fill="#1C1C1D"/>
<path d="M34.2857 2.28571H32V4.57143H34.2857V2.28571Z" fill="#1C1C1D"/>
<path d="M48 2.28571H45.7143V4.57143H48V2.28571Z" fill="#1C1C1D"/>
<path d="M2.28571 4.57143H0V6.85714H2.28571V4.57143Z" fill="#1C1C1D"/>
<path d="M6.85714 4.57143H4.57143V6.85714H6.85714V4.57143Z" fill="#1C1C1D"/>
<path d="M9.14286 4.57143H6.85714V6.85714H9.14286V4.57143Z" fill="#1C1C1D"/>
<path d="M11.4286 4.57143H9.14286V6.85714H11.4286V4.57143Z" fill="#1C1C1D"/>
<path d="M16 4.57143H13.7143V6.85714H16V4.57143Z" fill="#1C1C1D"/>
<path d="M20.5714 4.57143H18.2857V6.85714H20.5714V4.57143Z" fill="#1C1C1D"/>
<path d="M22.8571 4.57143H20.5714V6.85714H22.8571L22.8571 4.57143Z" fill="#1C1C1D"/>
<path d="M25.1429 4.57143H22.8571L22.8571 6.85714H25.1429V4.57143Z" fill="#1C1C1D"/>
<path d="M27.4286 4.57143H25.1429V6.85714H27.4286V4.57143Z" fill="#1C1C1D"/>
<path d="M29.7143 4.57143H27.4286V6.85714H29.7143V4.57143Z" fill="#1C1C1D"/>
<path d="M34.2857 4.57143H32V6.85714H34.2857V4.57143Z" fill="#1C1C1D"/>
<path d="M38.8571 4.57143H36.5714V6.85714H38.8571V4.57143Z" fill="#1C1C1D"/>
<path d="M41.1429 4.57143H38.8571V6.85714H41.1429V4.57143Z" fill="#1C1C1D"/>
<path d="M43.4286 4.57143H41.1429V6.85714H43.4286V4.57143Z" fill="#1C1C1D"/>
<path d="M48 4.57143H45.7143V6.85714H48V4.57143Z" fill="#1C1C1D"/>
<path d="M2.28571 6.85714H0V9.14286H2.28571V6.85714Z" fill="#1C1C1D"/>
<path d="M6.85714 6.85714H4.57143V9.14286H6.85714V6.85714Z" fill="#1C1C1D"/>
<path d="M9.14286 6.85714H6.85714V9.14286H9.14286V6.85714Z" fill="#1C1C1D"/>
<path d="M11.4286 6.85714H9.14286V9.14286H11.4286V6.85714Z" fill="#1C1C1D"/>
<path d="M16 6.85714H13.7143V9.14286H16V6.85714Z" fill="#1C1C1D"/>
<path d="M22.8571 6.85714H20.5714V9.14286H22.8571V6.85714Z" fill="#1C1C1D"/>
<path d="M29.7143 6.85714H27.4286V9.14286H29.7143V6.85714Z" fill="#1C1C1D"/>
<path d="M34.2857 6.85714H32V9.14286H34.2857V6.85714Z" fill="#1C1C1D"/>
<path d="M38.8571 6.85714H36.5714V9.14286H38.8571V6.85714Z" fill="#1C1C1D"/>
<path d="M41.1429 6.85714H38.8571V9.14286H41.1429V6.85714Z" fill="#1C1C1D"/>
<path d="M43.4286 6.85714H41.1429V9.14286H43.4286V6.85714Z" fill="#1C1C1D"/>
<path d="M48 6.85714H45.7143V9.14286H48V6.85714Z" fill="#1C1C1D"/>
<path d="M2.28571 9.14286H0V11.4286H2.28571V9.14286Z" fill="#1C1C1D"/>
<path d="M6.85714 9.14286H4.57143V11.4286H6.85714V9.14286Z" fill="#1C1C1D"/>
<path d="M9.14286 9.14286H6.85714V11.4286H9.14286V9.14286Z" fill="#1C1C1D"/>
<path d="M11.4286 9.14286H9.14286V11.4286H11.4286V9.14286Z" fill="#1C1C1D"/>
<path d="M16 9.14286H13.7143V11.4286H16V9.14286Z" fill="#1C1C1D"/>
<path d="M22.8571 9.14286H20.5714V11.4286H22.8571V9.14286Z" fill="#1C1C1D"/>
<path d="M25.1429 9.14286H22.8571V11.4286H25.1429V9.14286Z" fill="#1C1C1D"/>
<path d="M27.4286 9.14286H25.1429V11.4286H27.4286V9.14286Z" fill="#1C1C1D"/>
<path d="M34.2857 9.14286H32V11.4286H34.2857V9.14286Z" fill="#1C1C1D"/>
<path d="M38.8571 9.14286H36.5714V11.4286H38.8571V9.14286Z" fill="#1C1C1D"/>
<path d="M41.1429 9.14286H38.8571V11.4286H41.1429V9.14286Z" fill="#1C1C1D"/>
<path d="M43.4286 9.14286H41.1429V11.4286H43.4286V9.14286Z" fill="#1C1C1D"/>
<path d="M48 9.14286H45.7143V11.4286H48V9.14286Z" fill="#1C1C1D"/>
<path d="M2.28571 11.4286H0V13.7143H2.28571V11.4286Z" fill="#1C1C1D"/>
<path d="M16 11.4286H13.7143V13.7143H16V11.4286Z" fill="#1C1C1D"/>
<path d="M22.8571 11.4286H20.5714V13.7143H22.8571V11.4286Z" fill="#1C1C1D"/>
<path d="M25.1429 11.4286H22.8571V13.7143H25.1429V11.4286Z" fill="#1C1C1D"/>
<path d="M29.7143 11.4286H27.4286V13.7143H29.7143V11.4286Z" fill="#1C1C1D"/>
<path d="M34.2857 11.4286H32V13.7143H34.2857V11.4286Z" fill="#1C1C1D"/>
<path d="M48 11.4286H45.7143V13.7143H48V11.4286Z" fill="#1C1C1D"/>
<path d="M2.28571 13.7143H0V16H2.28571V13.7143Z" fill="#1C1C1D"/>
<path d="M4.57143 13.7143H2.28571V16H4.57143V13.7143Z" fill="#1C1C1D"/>
<path d="M6.85714 13.7143H4.57143V16H6.85714V13.7143Z" fill="#1C1C1D"/>
<path d="M9.14286 13.7143H6.85714V16H9.14286V13.7143Z" fill="#1C1C1D"/>
<path d="M11.4286 13.7143H9.14286V16H11.4286V13.7143Z" fill="#1C1C1D"/>
<path d="M13.7143 13.7143H11.4286V16H13.7143V13.7143Z" fill="#1C1C1D"/>
<path d="M16 13.7143H13.7143V16H16V13.7143Z" fill="#1C1C1D"/>
<path d="M20.5714 13.7143H18.2857V16H20.5714V13.7143Z" fill="#1C1C1D"/>
<path d="M25.1429 13.7143H22.8571L22.8571 16H25.1429V13.7143Z" fill="#1C1C1D"/>
<path d="M29.7143 13.7143H27.4286V16H29.7143V13.7143Z" fill="#1C1C1D"/>
<path d="M34.2857 13.7143H32V16H34.2857V13.7143Z" fill="#1C1C1D"/>
<path d="M36.5714 13.7143H34.2857V16H36.5714V13.7143Z" fill="#1C1C1D"/>
<path d="M38.8571 13.7143H36.5714V16H38.8571V13.7143Z" fill="#1C1C1D"/>
<path d="M41.1429 13.7143H38.8571V16H41.1429V13.7143Z" fill="#1C1C1D"/>
<path d="M43.4286 13.7143H41.1429V16H43.4286V13.7143Z" fill="#1C1C1D"/>
<path d="M45.7143 13.7143H43.4286V16H45.7143V13.7143Z" fill="#1C1C1D"/>
<path d="M48 13.7143H45.7143V16H48V13.7143Z" fill="#1C1C1D"/>
<path d="M20.5714 16H18.2857V18.2857H20.5714V16Z" fill="#1C1C1D"/>
<path d="M22.8571 16H20.5714V18.2857H22.8571L22.8571 16Z" fill="#1C1C1D"/>
<path d="M25.1429 16H22.8571L22.8571 18.2857H25.1429V16Z" fill="#1C1C1D"/>
<path d="M2.28571 18.2857H0V20.5714H2.28571V18.2857Z" fill="#1C1C1D"/>
<path d="M6.85714 18.2857H4.57143V20.5714H6.85714V18.2857Z" fill="#1C1C1D"/>
<path d="M13.7143 18.2857H11.4286V20.5714H13.7143V18.2857Z" fill="#1C1C1D"/>
<path d="M16 18.2857H13.7143V20.5714H16V18.2857Z" fill="#1C1C1D"/>
<path d="M27.4286 18.2857L25.1429 18.2857L25.1429 20.5714H27.4286V18.2857Z" fill="#1C1C1D"/>
<path d="M32 18.2857H29.7143V20.5714H32V18.2857Z" fill="#1C1C1D"/>
<path d="M34.2857 18.2857H32V20.5714H34.2857V18.2857Z" fill="#1C1C1D"/>
<path d="M43.4286 18.2857H41.1429V20.5714H43.4286V18.2857Z" fill="#1C1C1D"/>
<path d="M48 18.2857H45.7143V20.5714H48V18.2857Z" fill="#1C1C1D"/>
<path d="M2.28571 20.5714H0V22.8571H2.28571V20.5714Z" fill="#1C1C1D"/>
<path d="M6.85714 20.5714H4.57143V22.8571H6.85714V20.5714Z" fill="#1C1C1D"/>
<path d="M9.14286 20.5714H6.85714V22.8571H9.14286V20.5714Z" fill="#1C1C1D"/>
<path d="M11.4286 20.5714H9.14286V22.8571H11.4286V20.5714Z" fill="#1C1C1D"/>
<path d="M13.7143 20.5714H11.4286V22.8571H13.7143V20.5714Z" fill="#1C1C1D"/>
<path d="M20.5714 20.5714H18.2857V22.8571H20.5714V20.5714Z" fill="#1C1C1D"/>
<path d="M27.4286 20.5714H25.1429V22.8571H27.4286V20.5714Z" fill="#1C1C1D"/>
<path d="M32 20.5714H29.7143V22.8571H32V20.5714Z" fill="#1C1C1D"/>
<path d="M34.2857 20.5714H32V22.8571H34.2857V20.5714Z" fill="#1C1C1D"/>
<path d="M36.5714 20.5714H34.2857V22.8571H36.5714V20.5714Z" fill="#1C1C1D"/>
<path d="M43.4286 20.5714H41.1429V22.8571H43.4286V20.5714Z" fill="#1C1C1D"/>
<path d="M45.7143 20.5714H43.4286V22.8571H45.7143V20.5714Z" fill="#1C1C1D"/>
<path d="M6.85714 22.8571H4.57143V25.1429H6.85714V22.8571Z" fill="#1C1C1D"/>
<path d="M9.14286 22.8571H6.85714V25.1429H9.14286V22.8571Z" fill="#1C1C1D"/>
<path d="M16 22.8571L13.7143 22.8571V25.1429H16V22.8571Z" fill="#1C1C1D"/>
<path d="M22.8571 22.8571L20.5714 22.8571V25.1429H22.8571V22.8571Z" fill="#1C1C1D"/>
<path d="M25.1429 22.8571L22.8571 22.8571V25.1429H25.1429L25.1429 22.8571Z" fill="#1C1C1D"/>
<path d="M27.4286 22.8571H25.1429L25.1429 25.1429H27.4286V22.8571Z" fill="#1C1C1D"/>
<path d="M36.5714 22.8571H34.2857V25.1429H36.5714V22.8571Z" fill="#1C1C1D"/>
<path d="M41.1429 22.8571L38.8571 22.8571V25.1429H41.1429V22.8571Z" fill="#1C1C1D"/>
<path d="M45.7143 22.8571H43.4286V25.1429H45.7143V22.8571Z" fill="#1C1C1D"/>
<path d="M2.28571 25.1429H0V27.4286H2.28571V25.1429Z" fill="#1C1C1D"/>
<path d="M6.85714 25.1429H4.57143V27.4286H6.85714V25.1429Z" fill="#1C1C1D"/>
<path d="M11.4286 25.1429L9.14286 25.1429V27.4286H11.4286V25.1429Z" fill="#1C1C1D"/>
<path d="M13.7143 25.1429L11.4286 25.1429V27.4286H13.7143V25.1429Z" fill="#1C1C1D"/>
<path d="M22.8571 25.1429H20.5714V27.4286H22.8571V25.1429Z" fill="#1C1C1D"/>
<path d="M25.1429 25.1429H22.8571V27.4286H25.1429V25.1429Z" fill="#1C1C1D"/>
<path d="M27.4286 25.1429H25.1429V27.4286H27.4286V25.1429Z" fill="#1C1C1D"/>
<path d="M29.7143 25.1429L27.4286 25.1429V27.4286H29.7143V25.1429Z" fill="#1C1C1D"/>
<path d="M41.1429 25.1429H38.8571V27.4286H41.1429V25.1429Z" fill="#1C1C1D"/>
<path d="M43.4286 25.1429H41.1429V27.4286H43.4286V25.1429Z" fill="#1C1C1D"/>
<path d="M45.7143 25.1429H43.4286V27.4286H45.7143V25.1429Z" fill="#1C1C1D"/>
<path d="M48 25.1429L45.7143 25.1429V27.4286H48V25.1429Z" fill="#1C1C1D"/>
<path d="M2.28571 27.4286H0V29.7143H2.28571V27.4286Z" fill="#1C1C1D"/>
<path d="M4.57143 27.4286H2.28571V29.7143H4.57143V27.4286Z" fill="#1C1C1D"/>
<path d="M9.14286 27.4286H6.85714V29.7143H9.14286V27.4286Z" fill="#1C1C1D"/>
<path d="M11.4286 27.4286H9.14286V29.7143H11.4286V27.4286Z" fill="#1C1C1D"/>
<path d="M13.7143 27.4286H11.4286V29.7143H13.7143V27.4286Z" fill="#1C1C1D"/>
<path d="M16 27.4286H13.7143V29.7143H16V27.4286Z" fill="#1C1C1D"/>
<path d="M18.2857 27.4286H16V29.7143H18.2857V27.4286Z" fill="#1C1C1D"/>
<path d="M25.1429 27.4286H22.8571L22.8571 29.7143H25.1429V27.4286Z" fill="#1C1C1D"/>
<path d="M29.7143 27.4286H27.4286V29.7143H29.7143V27.4286Z" fill="#1C1C1D"/>
<path d="M36.5714 27.4286H34.2857V29.7143H36.5714V27.4286Z" fill="#1C1C1D"/>
<path d="M43.4286 27.4286H41.1429V29.7143H43.4286V27.4286Z" fill="#1C1C1D"/>
<path d="M48 27.4286H45.7143V29.7143H48V27.4286Z" fill="#1C1C1D"/>
<path d="M25.1429 29.7143H22.8571V32H25.1429V29.7143Z" fill="#1C1C1D"/>
<path d="M27.4286 29.7143H25.1429V32H27.4286V29.7143Z" fill="#1C1C1D"/>
<path d="M29.7143 29.7143H27.4286V32H29.7143V29.7143Z" fill="#1C1C1D"/>
<path d="M32 29.7143H29.7143V32H32V29.7143Z" fill="#1C1C1D"/>
<path d="M38.8571 29.7143H36.5714V32H38.8571V29.7143Z" fill="#1C1C1D"/>
<path d="M41.1429 29.7143H38.8571V32H41.1429V29.7143Z" fill="#1C1C1D"/>
<path d="M43.4286 29.7143H41.1429V32H43.4286V29.7143Z" fill="#1C1C1D"/>
<path d="M45.7143 29.7143H43.4286V32H45.7143V29.7143Z" fill="#1C1C1D"/>
<path d="M48 29.7143H45.7143V32H48V29.7143Z" fill="#1C1C1D"/>
<path d="M2.28571 32H0V34.2857H2.28571V32Z" fill="#1C1C1D"/>
<path d="M4.57143 32H2.28571V34.2857H4.57143V32Z" fill="#1C1C1D"/>
<path d="M6.85714 32H4.57143V34.2857H6.85714V32Z" fill="#1C1C1D"/>
<path d="M9.14286 32H6.85714V34.2857H9.14286V32Z" fill="#1C1C1D"/>
<path d="M11.4286 32H9.14286V34.2857H11.4286V32Z" fill="#1C1C1D"/>
<path d="M13.7143 32H11.4286V34.2857H13.7143V32Z" fill="#1C1C1D"/>
<path d="M16 32H13.7143V34.2857H16V32Z" fill="#1C1C1D"/>
<path d="M34.2857 32H32V34.2857H34.2857V32Z" fill="#1C1C1D"/>
<path d="M38.8571 32H36.5714V34.2857H38.8571V32Z" fill="#1C1C1D"/>
<path d="M41.1429 32H38.8571V34.2857H41.1429V32Z" fill="#1C1C1D"/>
<path d="M45.7143 32H43.4286V34.2857H45.7143V32Z" fill="#1C1C1D"/>
<path d="M48 32H45.7143V34.2857H48V32Z" fill="#1C1C1D"/>
<path d="M2.28571 34.2857H0V36.5714H2.28571V34.2857Z" fill="#1C1C1D"/>
<path d="M16 34.2857H13.7143V36.5714H16V34.2857Z" fill="#1C1C1D"/>
<path d="M20.5714 34.2857H18.2857V36.5714H20.5714V34.2857Z" fill="#1C1C1D"/>
<path d="M22.8571 34.2857H20.5714V36.5714H22.8571V34.2857Z" fill="#1C1C1D"/>
<path d="M27.4286 34.2857H25.1429V36.5714H27.4286V34.2857Z" fill="#1C1C1D"/>
<path d="M41.1429 34.2857H38.8571V36.5714H41.1429V34.2857Z" fill="#1C1C1D"/>
<path d="M45.7143 34.2857H43.4286V36.5714H45.7143V34.2857Z" fill="#1C1C1D"/>
<path d="M48 34.2857H45.7143V36.5714H48V34.2857Z" fill="#1C1C1D"/>
<path d="M2.28571 36.5714H0V38.8571H2.28571V36.5714Z" fill="#1C1C1D"/>
<path d="M6.85714 36.5714H4.57143V38.8571H6.85714V36.5714Z" fill="#1C1C1D"/>
<path d="M9.14286 36.5714H6.85714V38.8571H9.14286V36.5714Z" fill="#1C1C1D"/>
<path d="M11.4286 36.5714H9.14286V38.8571H11.4286V36.5714Z" fill="#1C1C1D"/>
<path d="M16 36.5714H13.7143V38.8571H16V36.5714Z" fill="#1C1C1D"/>
<path d="M22.8571 36.5714H20.5714V38.8571H22.8571V36.5714Z" fill="#1C1C1D"/>
<path d="M25.1429 36.5714H22.8571V38.8571H25.1429L25.1429 36.5714Z" fill="#1C1C1D"/>
<path d="M27.4286 36.5714H25.1429L25.1429 38.8571H27.4286V36.5714Z" fill="#1C1C1D"/>
<path d="M32 36.5714H29.7143V38.8571H32V36.5714Z" fill="#1C1C1D"/>
<path d="M34.2857 36.5714H32V38.8571H34.2857V36.5714Z" fill="#1C1C1D"/>
<path d="M38.8571 36.5714H36.5714V38.8571H38.8571V36.5714Z" fill="#1C1C1D"/>
<path d="M41.1429 36.5714H38.8571V38.8571H41.1429V36.5714Z" fill="#1C1C1D"/>
<path d="M43.4286 36.5714H41.1429V38.8571H43.4286V36.5714Z" fill="#1C1C1D"/>
<path d="M45.7143 36.5714H43.4286V38.8571H45.7143V36.5714Z" fill="#1C1C1D"/>
<path d="M48 36.5714H45.7143V38.8571H48V36.5714Z" fill="#1C1C1D"/>
<path d="M2.28571 38.8571H0V41.1429H2.28571V38.8571Z" fill="#1C1C1D"/>
<path d="M6.85714 38.8571H4.57143V41.1429H6.85714V38.8571Z" fill="#1C1C1D"/>
<path d="M9.14286 38.8571H6.85714V41.1429H9.14286V38.8571Z" fill="#1C1C1D"/>
<path d="M11.4286 38.8571H9.14286V41.1429H11.4286V38.8571Z" fill="#1C1C1D"/>
<path d="M16 38.8571H13.7143V41.1429H16V38.8571Z" fill="#1C1C1D"/>
<path d="M22.8571 38.8571H20.5714V41.1429H22.8571V38.8571Z" fill="#1C1C1D"/>
<path d="M25.1429 38.8571H22.8571V41.1429H25.1429V38.8571Z" fill="#1C1C1D"/>
<path d="M27.4286 38.8571H25.1429V41.1429H27.4286V38.8571Z" fill="#1C1C1D"/>
<path d="M32 38.8571H29.7143V41.1429H32V38.8571Z" fill="#1C1C1D"/>
<path d="M34.2857 38.8571H32V41.1429H34.2857V38.8571Z" fill="#1C1C1D"/>
<path d="M36.5714 38.8571H34.2857V41.1429H36.5714V38.8571Z" fill="#1C1C1D"/>
<path d="M38.8571 38.8571H36.5714V41.1429H38.8571V38.8571Z" fill="#1C1C1D"/>
<path d="M41.1429 38.8571H38.8571V41.1429H41.1429V38.8571Z" fill="#1C1C1D"/>
<path d="M45.7143 38.8571H43.4286V41.1429H45.7143V38.8571Z" fill="#1C1C1D"/>
<path d="M2.28571 41.1429H0V43.4286H2.28571V41.1429Z" fill="#1C1C1D"/>
<path d="M6.85714 41.1429H4.57143V43.4286H6.85714V41.1429Z" fill="#1C1C1D"/>
<path d="M9.14286 41.1429H6.85714V43.4286H9.14286V41.1429Z" fill="#1C1C1D"/>
<path d="M11.4286 41.1429H9.14286V43.4286H11.4286V41.1429Z" fill="#1C1C1D"/>
<path d="M16 41.1429H13.7143V43.4286H16V41.1429Z" fill="#1C1C1D"/>
<path d="M20.5714 41.1429H18.2857V43.4286H20.5714V41.1429Z" fill="#1C1C1D"/>
<path d="M22.8571 41.1429H20.5714V43.4286H22.8571V41.1429Z" fill="#1C1C1D"/>
<path d="M43.4286 41.1429H41.1429V43.4286H43.4286V41.1429Z" fill="#1C1C1D"/>
<path d="M2.28571 43.4286H0V45.7143H2.28571V43.4286Z" fill="#1C1C1D"/>
<path d="M16 43.4286H13.7143V45.7143H16V43.4286Z" fill="#1C1C1D"/>
<path d="M27.4286 43.4286H25.1429V45.7143H27.4286V43.4286Z" fill="#1C1C1D"/>
<path d="M29.7143 43.4286H27.4286V45.7143H29.7143V43.4286Z" fill="#1C1C1D"/>
<path d="M36.5714 43.4286H34.2857V45.7143H36.5714V43.4286Z" fill="#1C1C1D"/>
<path d="M38.8571 43.4286H36.5714V45.7143H38.8571V43.4286Z" fill="#1C1C1D"/>
<path d="M43.4286 43.4286H41.1429V45.7143H43.4286V43.4286Z" fill="#1C1C1D"/>
<path d="M2.28571 45.7143H0V48H2.28571V45.7143Z" fill="#1C1C1D"/>
<path d="M4.57143 45.7143H2.28571V48H4.57143V45.7143Z" fill="#1C1C1D"/>
<path d="M6.85714 45.7143H4.57143V48H6.85714V45.7143Z" fill="#1C1C1D"/>
<path d="M9.14286 45.7143H6.85714V48H9.14286V45.7143Z" fill="#1C1C1D"/>
<path d="M11.4286 45.7143H9.14286V48H11.4286V45.7143Z" fill="#1C1C1D"/>
<path d="M13.7143 45.7143H11.4286V48H13.7143V45.7143Z" fill="#1C1C1D"/>
<path d="M16 45.7143H13.7143V48H16V45.7143Z" fill="#1C1C1D"/>
<path d="M20.5714 45.7143H18.2857V48H20.5714V45.7143Z" fill="#1C1C1D"/>
<path d="M22.8571 45.7143H20.5714V48H22.8571V45.7143Z" fill="#1C1C1D"/>
<path d="M25.1429 45.7143H22.8571V48H25.1429L25.1429 45.7143Z" fill="#1C1C1D"/>
<path d="M32 45.7143H29.7143V48H32V45.7143Z" fill="#1C1C1D"/>
<path d="M34.2857 45.7143H32V48H34.2857V45.7143Z" fill="#1C1C1D"/>
<path d="M43.4286 45.7143H41.1429V48H43.4286V45.7143Z" fill="#1C1C1D"/>
<path d="M48 45.7143H45.7143V48H48V45.7143Z" fill="#1C1C1D"/>
</svg>
