<svg width="60" height="60" viewBox="0 0 60 60" fill="none" xmlns="http://www.w3.org/2000/svg">
<path d="M50.625 11.25H9.375C8.33947 11.25 7.5 12.0895 7.5 13.125V46.875C7.5 47.9105 8.33947 48.75 9.375 48.75H50.625C51.6605 48.75 52.5 47.9105 52.5 46.875V13.125C52.5 12.0895 51.6605 11.25 50.625 11.25Z" stroke="#F5A621" stroke-width="3.75" stroke-linecap="round" stroke-linejoin="round"/>
<path d="M7.5 18.75H52.5" stroke="#F5A621" stroke-width="3.75" stroke-linecap="round" stroke-linejoin="round"/>
<path d="M39.375 26.25C39.375 28.7364 38.3873 31.121 36.6291 32.8791C34.871 34.6373 32.4864 35.625 30 35.625C27.5136 35.625 25.129 34.6373 23.3709 32.8791C21.6127 31.121 20.625 28.7364 20.625 26.25" stroke="#F5A621" stroke-width="3.75" stroke-linecap="round" stroke-linejoin="round"/>
</svg>
