<svg width="60" height="60" viewBox="0 0 60 60" fill="none" xmlns="http://www.w3.org/2000/svg">
<path d="M10.8684 23.1802C7.01423 28.096 5.77719 34.8396 10.0001 42.8162L11.2501 54.0662H18.7501L20.0001 50.3162C21.8335 51.3058 27.1501 52.9412 33.7501 51.5662L35.0001 54.0662H42.5001L43.7501 46.5662C45.7032 45.1495 49.6876 41.4162 50.0001 37.8162L55.0001 36.5662V29.0662H50.0001C50.0001 27.1841 50.0001 23.1802 46.9 20.9341L50 14.6841C48.3333 13.8507 44.25 13.1841 41.25 17.1841C39.9747 16.4189 38.5017 15.8621 36.9017 15.494M10.8684 23.1802C9.74558 23.0589 7 22.3162 5 20.3162M10.8684 23.1802C12.6311 20.9319 15.4588 19.0192 18.7649 17.6038M37.5 25.9341C36.8279 25.313 35.8131 24.7794 34.5819 24.3721M19.9999 25.6427C21.4433 24.6243 23.0122 24.2853 24.6089 23.9396M32.1785 11.2554C31.4891 11.0464 30.7576 10.9341 29.9999 10.9341C25.8577 10.9341 22.4999 14.2919 22.4999 18.4341C22.4999 19.1918 22.6122 19.9233 22.8212 20.6127M32.1785 11.2554C31.2451 8.17581 28.3843 5.93408 24.9999 5.93408C20.8577 5.93408 17.4999 9.29195 17.4999 13.4341C17.4999 14.9772 17.9659 16.4115 18.7649 17.6038M32.1785 11.2554C34.3086 11.901 36.0379 13.4687 36.9017 15.494M22.8212 20.6127C23.171 21.7669 23.7916 23.0947 24.6089 23.9396M22.8212 20.6127C21.1458 20.1049 19.7183 19.0266 18.7649 17.6038M24.6089 23.9396C28.0798 23.1881 31.8597 23.4715 34.5819 24.3721M34.5819 24.3721C36.3569 23.0005 37.4999 20.8508 37.4999 18.4341C37.4999 17.3906 37.2868 16.3968 36.9017 15.494" stroke="#F5A621" stroke-width="3.75" stroke-linecap="round" stroke-linejoin="round"/>
</svg>
