<svg width="68" height="64" viewBox="0 0 68 64" fill="none" xmlns="http://www.w3.org/2000/svg">
<path fill-rule="evenodd" clip-rule="evenodd" d="M27.9866 8.15705C30.8325 3.8386 37.1674 3.8386 40.0133 8.15705C40.8407 9.41261 42.4304 9.92319 43.8342 9.38426L44.4226 9.15833C49.1271 7.35221 54.1074 11.0677 53.7163 16.0918C53.6066 17.5008 54.5436 18.7783 55.9206 19.0968L56.3354 19.1928C61.3043 20.3423 63.2183 26.401 59.8115 30.1964C58.8905 31.2226 58.8905 32.7778 59.8115 33.804C63.2183 37.5994 61.3043 43.6581 56.3354 44.8076L55.9206 44.9035C54.5436 45.2221 53.6066 46.4995 53.7163 47.9086C54.1074 52.9326 49.1271 56.6482 44.4226 54.8421L43.8342 54.6161C42.4304 54.0772 40.8407 54.5878 40.0133 55.8433C37.1674 60.1618 30.8325 60.1618 27.9866 55.8433C27.1592 54.5878 25.5695 54.0772 24.1658 54.6161L23.5773 54.842C18.8728 56.6482 13.8925 52.9327 14.2837 47.9086C14.3934 46.4995 13.4563 45.2221 12.0794 44.9035L11.6646 44.8076C6.6956 43.6581 4.7816 37.5994 8.1884 33.804C9.10946 32.7778 9.10946 31.2226 8.1884 30.1964C4.7816 26.401 6.6956 20.3423 11.6646 19.1928L12.0794 19.0968C13.4563 18.7783 14.3934 17.5008 14.2837 16.0918C13.8925 11.0677 18.8728 7.35221 23.5773 9.15833L24.1658 9.38426C25.5695 9.92319 27.1592 9.41261 27.9866 8.15705ZM36.6733 10.3581C35.4081 8.43824 32.5918 8.43824 31.3266 10.3581C29.4654 13.1823 25.8897 14.3308 22.7321 13.1185L22.1437 12.8926C20.1836 12.1401 18.1086 13.6881 18.2716 15.7813C18.5349 19.1632 16.2858 22.2294 12.9809 22.9939L12.5661 23.0899C10.5635 23.5531 9.79214 25.9949 11.1651 27.5245C13.4505 30.0707 13.4505 33.9297 11.1651 36.4759C9.79214 38.0055 10.5635 40.4472 12.5661 40.9105L12.9809 41.0065C16.2858 41.771 18.5349 44.8371 18.2716 48.2191C18.1086 50.3123 20.1836 51.8603 22.1437 51.1078L22.7321 50.8819C25.8897 49.6696 29.4654 50.8181 31.3266 53.6423C32.5918 55.5621 35.4081 55.5621 36.6733 53.6423C38.5345 50.8181 42.1102 49.6696 45.2678 50.8819L45.8563 51.1078C47.8163 51.8603 49.8913 50.3123 49.7283 48.2191C49.465 44.8371 51.7142 41.771 55.019 41.0065L55.4338 40.9105C57.4364 40.4472 58.2078 38.0055 56.8348 36.4759C54.5494 33.9297 54.5494 30.0707 56.8348 27.5245C58.2078 25.9949 57.4364 23.5531 55.4339 23.0899L55.019 22.9939C51.7142 22.2294 49.465 19.1632 49.7283 15.7813C49.8913 13.6881 47.8163 12.1401 45.8563 12.8926L45.2678 13.1185C42.1102 14.3308 38.5345 13.1823 36.6733 10.3581ZM34 20.6669C27.1645 20.6669 21.8333 25.8535 21.8333 32.0002C21.8333 38.1469 27.1645 43.3335 34 43.3335C40.8354 43.3335 46.1666 38.1469 46.1666 32.0002C46.1666 25.8535 40.8354 20.6669 34 20.6669ZM17.8333 32.0002C17.8333 23.4193 25.1873 16.6669 34 16.6669C42.8126 16.6669 50.1666 23.4193 50.1666 32.0002C50.1666 40.5811 42.8126 47.3335 34 47.3335C25.1873 47.3335 17.8333 40.5811 17.8333 32.0002ZM41.0374 30.7899C41.8417 30.0329 41.8801 28.7671 41.123 27.9628C40.366 27.1584 39.1002 27.1201 38.2959 27.8771L32.6471 33.1936L29.7688 30.2266C28.9997 29.4338 27.7335 29.4146 26.9407 30.1837C26.1479 30.9528 26.1287 32.219 26.8978 33.0118L31.1478 37.3928C31.9087 38.1771 33.1583 38.2055 33.954 37.4566L41.0374 30.7899Z" fill="#131314"/>
</svg>
