<svg width="20" height="20" viewBox="0 0 20 20" fill="none" xmlns="http://www.w3.org/2000/svg">
<path d="M9.64907 0.306229C8.90432 0.988383 7.14163 2.77748 6.01336 5.34303M5.00417 9.7C5.04581 8.20105 5.39596 6.83192 5.89332 5.62489C5.79168 5.60422 5.69232 5.58296 5.59524 5.56117M5.00417 10.3C5.04581 11.799 5.39596 13.1681 5.89332 14.3751C5.79168 14.3958 5.69232 14.417 5.59524 14.4388M6.01336 14.657C7.14163 17.2225 8.90432 19.0116 9.64907 19.6938M10.3509 0.306229C11.0957 0.988383 12.8584 2.77748 13.9866 5.34303M14.9958 9.7C14.9542 8.20105 14.604 6.83192 14.1067 5.62489C14.2083 5.60422 14.3077 5.58296 14.4048 5.56117M14.9958 10.3C14.9542 11.799 14.604 13.1681 14.1067 14.3751C14.2083 14.3958 14.3077 14.417 14.4048 14.4388M13.9866 14.657C12.8584 17.2225 11.0957 19.0116 10.3509 19.6938M2.415 16.0469C2.45955 16.0141 2.51177 15.9773 2.57201 15.9371C2.83613 15.7611 3.25531 15.5208 3.86104 15.2785C4.35034 15.0829 4.96224 14.8855 5.71347 14.7199C6.16155 15.7518 6.70996 16.6601 7.25588 17.4244C7.89239 18.3155 8.52876 19.0155 9.00662 19.4934C9.0678 19.5546 9.12641 19.6121 9.18211 19.666C6.4464 19.4377 4.0333 18.0741 2.415 16.0469ZM17.585 3.9531C17.5404 3.98588 17.4882 4.02271 17.428 4.06287C17.1639 4.2389 16.7447 4.47919 16.139 4.72145C15.6497 4.91714 15.0378 5.11446 14.2865 5.28013C13.8385 4.2482 13.29 3.33992 12.7441 2.57563C12.1076 1.68451 11.4712 0.984474 10.9934 0.506618C10.9322 0.445435 10.8736 0.38787 10.8179 0.333988C13.5536 0.562346 15.9667 1.92588 17.585 3.9531ZM2.415 3.95309C4.0333 1.92588 6.44641 0.562346 9.18211 0.333988C9.12641 0.38787 9.0678 0.445435 9.00662 0.506618C8.52876 0.984474 7.89239 1.68451 7.25588 2.57563C6.70996 3.33992 6.16155 4.2482 5.71347 5.28013C4.96224 5.11446 4.35034 4.91714 3.86104 4.72145C3.25531 4.47919 2.83613 4.2389 2.57201 4.06287C2.51177 4.02271 2.45955 3.98588 2.415 3.95309ZM3.63823 5.27855C4.13677 5.47794 4.74729 5.67584 5.48402 5.84359C5.04456 6.99892 4.74207 8.2928 4.70405 9.7H0.304549C0.36397 7.74312 1.00275 5.93262 2.05528 4.43333C2.10821 4.47237 2.1694 4.51558 2.23925 4.56213C2.53777 4.7611 2.99378 5.02081 3.63823 5.27855ZM5.30429 9.7C5.34319 8.33912 5.64374 7.08622 6.07946 5.96688C7.07676 6.15361 8.27452 6.28241 9.7 6.29833V6.31455V6.34966V6.38482V6.42002V6.45525V6.49053V6.52585V6.5612V6.5966V6.63203V6.6675V6.703V6.73855V6.77412V6.80973V6.84538V6.88106V6.91678V6.95252V6.9883V7.02412V7.05996V7.09583V7.13174V7.16767V7.20364V7.23963V7.27565V7.3117V7.34778V7.38388V7.42001V7.45616V7.49234V7.52855V7.56478V7.60103V7.63731V7.67361V7.70993V7.74627V7.78263V7.81902V7.85542V7.89185V7.92829V7.96475V8.00123V8.03773V8.07424V8.11077V8.14732V8.18388V8.22046V8.25705V8.29365V8.33027V8.3669V8.40354V8.4402V8.47686V8.51354V8.55023V8.58692V8.62363V8.66034V8.69706V8.73379V8.77053V8.80728V8.84403V8.88078V8.91754V8.95431V8.99107V9.02785V9.06462V9.1014V9.13818V9.17496V9.21174V9.24852V9.28531V9.32209V9.35887V9.39565V9.43242V9.4692V9.50597V9.54273V9.57949V9.61625V9.653V9.68975V9.7H5.30429ZM0.304549 10.3H4.70405C4.74207 11.7072 5.04456 13.0011 5.48402 14.1564C4.74729 14.3242 4.13677 14.5221 3.63823 14.7215C2.99378 14.9792 2.53777 15.2389 2.23925 15.4379C2.1694 15.4844 2.10821 15.5276 2.05528 15.5667C1.00275 14.0674 0.36397 12.2569 0.304549 10.3ZM6.07946 14.0331C5.64374 12.9138 5.34319 11.6609 5.30429 10.3H9.7V10.313V10.3496V10.3861V10.4226V10.4591V10.4956V10.5321V10.5685V10.605V10.6414V10.6778V10.7141V10.7505V10.7868V10.8231V10.8594V10.8957V10.9319V10.9681V11.0043V11.0405V11.0766V11.1127V11.1488V11.1849V11.2209V11.2569V11.2929V11.3288V11.3648V11.4006V11.4365V11.4723V11.5081V11.5439V11.5796V11.6153V11.6509V11.6866V11.7222V11.7577V11.7932V11.8287V11.8642V11.8996V11.9349V11.9703V12.0056V12.0408V12.076V12.1112V12.1463V12.1814V12.2165V12.2515V12.2864V12.3213V12.3562V12.391V12.4258V12.4606V12.4953V12.5299V12.5645V12.599V12.6335V12.668V12.7024V12.7367V12.7711V12.8053V12.8395V12.8736V12.9077V12.9418V12.9758V13.0097V13.0436V13.0774V13.1112V13.1449V13.1785V13.2121V13.2457V13.2792V13.3126V13.346V13.3793V13.4125V13.4457V13.4788V13.5119V13.5449V13.5778V13.6107V13.6435V13.6762V13.7017C8.27452 13.7176 7.07676 13.8464 6.07946 14.0331ZM7.74412 17.0756C7.2378 16.3668 6.73378 15.5358 6.31612 14.5998C7.25088 14.4325 8.37069 14.3169 9.7 14.3017V14.3089V14.3233V14.3377V14.3521V14.3665V14.3809V14.3954V14.4099V14.4244V14.439V14.4535V14.4681V14.4827V14.4974V14.512V14.5267V14.5414V14.5561V14.5709V14.5856V14.6004V14.6152V14.63V14.6449V14.6598V14.6746V14.6896V14.7045V14.7194V14.7344V14.7494V14.7644V14.7794V14.7944V14.8095V14.8246V14.8397V14.8548V14.8699V14.885V14.9002V14.9154V14.9306V14.9458V14.961V14.9762V14.9915V15.0067V15.022V15.0373V15.0526V15.068V15.0833V15.0986V15.114V15.1294V15.1448V15.1602V15.1756V15.191V15.2065V15.2219V15.2374V15.2529V15.2684V15.2839V15.2994V15.3149V15.3304V15.346V15.3615V15.3771V15.3926V15.4082V15.4238V15.4394V15.455V15.4706V15.4862V15.5019V15.5175V15.5332V15.5488V15.5645V15.5801V15.5958V15.6115V15.6272V15.6429V15.6585V15.6742V15.69V15.7057V15.7214V15.7371V15.7528V15.7686V15.7843V15.8V15.8158V15.8315V15.8472V15.863V15.8787V15.8945V15.9103V15.926V15.9418V15.9575V15.9733V15.9891V16.0048V16.0206V16.0363V16.0521V16.0679V16.0836V16.0994V16.1152V16.1309V16.1467V16.1624V16.1782V16.194V16.2097V16.2255V16.2412V16.2569V16.2727V16.2884V16.3042V16.3199V16.3356V16.3513V16.3671V16.3828V16.3985V16.4142V16.4299V16.4456V16.4613V16.4769V16.4926V16.5083V16.524V16.5396V16.5553V16.5709V16.5865V16.6022V16.6178V16.6334V16.649V16.6646V16.6802V16.6957V16.7113V16.7269V16.7424V16.758V16.7735V16.789V16.8045V16.82V16.8355V16.851V16.8664V16.8819V16.8973V16.9127V16.9281V16.9435V16.9589V16.9743V16.9897V17.005V17.0203V17.0357V17.051V17.0663V17.0815V17.0968V17.1121V17.1273V17.1425V17.1577V17.1729V17.1881V17.2032V17.2183V17.2335V17.2486V17.2636V17.2787V17.2938V17.3088V17.3238V17.3388V17.3538V17.3687V17.3837V17.3986V17.4135V17.4284V17.4432V17.4581V17.4729V17.4877V17.5025V17.5172V17.532V17.5467V17.5614V17.576V17.5907V17.6053V17.6199V17.6345V17.6491V17.6636V17.6781V17.6926V17.7071V17.7215V17.7359V17.7503V17.7647V17.779V17.7933V17.8076V17.8219V17.8361V17.8503V17.8645V17.8787V17.8928V17.9069V17.921V17.935V17.9491V17.9631V17.977V17.991V18.0049V18.0188V18.0326V18.0464V18.0602V18.074V18.0877V18.1014V18.1151V18.1287V18.1424V18.1559V18.1695V18.183V18.1965V18.2099V18.2234V18.2368V18.2501V18.2634V18.2767V18.29V18.3032V18.3164V18.3296V18.3427V18.3558V18.3688V18.3818V18.3948V18.4078V18.4207V18.4336V18.4464V18.4592V18.472V18.4847V18.4974V18.5101V18.5227V18.5353V18.5478V18.5603V18.5728V18.5852V18.5976V18.61V18.6223V18.6346V18.6468V18.659V18.6712V18.6833V18.6954V18.7074V18.7194V18.7313V18.7433V18.7551V18.767V18.7787V18.7905V18.8022V18.8138V18.8255V18.837V18.8486V18.8601V18.8715V18.8829V18.8943V18.9056V18.9168V18.9281V18.9392V18.9504V18.9615V18.9725V18.9835V18.9944V19.0053V19.0162V19.027V19.0378V19.0485V19.0592V19.0698V19.0803V19.0909V19.1013V19.1118V19.1221V19.1325V19.1428V19.153V19.1632V19.1733V19.1834V19.1934V19.2034V19.2133V19.2232V19.233V19.2428V19.2525V19.2622V19.2718V19.2814V19.2909V19.3003V19.3098V19.3191V19.3284V19.3312C9.61822 19.2537 9.52802 19.1663 9.43088 19.0691C8.97124 18.6095 8.35761 17.9345 7.74412 17.0756ZM10.3 14.3089V14.3017C11.6293 14.3169 12.7491 14.4325 13.6839 14.5998C13.2662 15.5358 12.7622 16.3668 12.2559 17.0756C11.6424 17.9345 11.0288 18.6095 10.5691 19.0691C10.472 19.1663 10.3818 19.2537 10.3 19.3312V19.3284V19.3191V19.3098V19.3003V19.2909V19.2814V19.2718V19.2622V19.2525V19.2428V19.233V19.2232V19.2133V19.2034V19.1934V19.1834V19.1733V19.1632V19.153V19.1428V19.1325V19.1221V19.1118V19.1013V19.0909V19.0803V19.0698V19.0592V19.0485V19.0378V19.027V19.0162V19.0053V18.9944V18.9835V18.9725V18.9615V18.9504V18.9392V18.9281V18.9168V18.9056V18.8943V18.8829V18.8715V18.8601V18.8486V18.837V18.8255V18.8138V18.8022V18.7905V18.7787V18.767V18.7551V18.7433V18.7313V18.7194V18.7074V18.6954V18.6833V18.6712V18.659V18.6468V18.6346V18.6223V18.61V18.5976V18.5852V18.5728V18.5603V18.5478V18.5353V18.5227V18.5101V18.4974V18.4847V18.472V18.4592V18.4464V18.4336V18.4207V18.4078V18.3948V18.3818V18.3688V18.3558V18.3427V18.3296V18.3164V18.3032V18.29V18.2767V18.2634V18.2501V18.2368V18.2234V18.2099V18.1965V18.183V18.1695V18.1559V18.1424V18.1287V18.1151V18.1014V18.0877V18.074V18.0602V18.0464V18.0326V18.0188V18.0049V17.991V17.977V17.9631V17.9491V17.935V17.921V17.9069V17.8928V17.8787V17.8645V17.8503V17.8361V17.8219V17.8076V17.7933V17.779V17.7647V17.7503V17.7359V17.7215V17.7071V17.6926V17.6781V17.6636V17.6491V17.6345V17.6199V17.6053V17.5907V17.576V17.5614V17.5467V17.532V17.5172V17.5025V17.4877V17.4729V17.4581V17.4432V17.4284V17.4135V17.3986V17.3837V17.3687V17.3538V17.3388V17.3238V17.3088V17.2938V17.2787V17.2636V17.2486V17.2335V17.2183V17.2032V17.1881V17.1729V17.1577V17.1425V17.1273V17.1121V17.0968V17.0815V17.0663V17.051V17.0357V17.0203V17.005V16.9897V16.9743V16.9589V16.9435V16.9281V16.9127V16.8973V16.8819V16.8664V16.851V16.8355V16.82V16.8045V16.789V16.7735V16.758V16.7424V16.7269V16.7113V16.6957V16.6802V16.6646V16.649V16.6334V16.6178V16.6022V16.5865V16.5709V16.5553V16.5396V16.524V16.5083V16.4926V16.4769V16.4613V16.4456V16.4299V16.4142V16.3985V16.3828V16.3671V16.3513V16.3356V16.3199V16.3042V16.2884V16.2727V16.2569V16.2412V16.2255V16.2097V16.194V16.1782V16.1624V16.1467V16.1309V16.1152V16.0994V16.0836V16.0679V16.0521V16.0363V16.0206V16.0048V15.9891V15.9733V15.9575V15.9418V15.926V15.9103V15.8945V15.8787V15.863V15.8472V15.8315V15.8158V15.8V15.7843V15.7686V15.7528V15.7371V15.7214V15.7057V15.69V15.6742V15.6585V15.6429V15.6272V15.6115V15.5958V15.5801V15.5645V15.5488V15.5332V15.5175V15.5019V15.4862V15.4706V15.455V15.4394V15.4238V15.4082V15.3926V15.3771V15.3615V15.346V15.3304V15.3149V15.2994V15.2839V15.2684V15.2529V15.2374V15.2219V15.2065V15.191V15.1756V15.1602V15.1448V15.1294V15.114V15.0986V15.0833V15.068V15.0526V15.0373V15.022V15.0067V14.9915V14.9762V14.961V14.9458V14.9306V14.9154V14.9002V14.885V14.8699V14.8548V14.8397V14.8246V14.8095V14.7944V14.7794V14.7644V14.7494V14.7344V14.7194V14.7045V14.6896V14.6746V14.6598V14.6449V14.63V14.6152V14.6004V14.5856V14.5709V14.5561V14.5414V14.5267V14.512V14.4974V14.4827V14.4681V14.4535V14.439V14.4244V14.4099V14.3954V14.3809V14.3665V14.3521V14.3377V14.3233V14.3089ZM12.7441 17.4244C13.29 16.6601 13.8385 15.7518 14.2865 14.7199C15.0378 14.8855 15.6497 15.0829 16.139 15.2785C16.7447 15.5208 17.1639 15.7611 17.428 15.9371C17.4882 15.9773 17.5404 16.0141 17.585 16.0469C15.9667 18.0741 13.5536 19.4377 10.8179 19.666C10.8736 19.6121 10.9322 19.5546 10.9934 19.4934C11.4712 19.0155 12.1076 18.3155 12.7441 17.4244ZM17.9447 15.5667C17.8918 15.5276 17.8306 15.4844 17.7607 15.4379C17.4622 15.2389 17.0062 14.9792 16.3618 14.7215C15.8632 14.5221 15.2527 14.3242 14.516 14.1564C14.9554 13.0011 15.2579 11.7072 15.2959 10.3H19.6955C19.636 12.2569 18.9973 14.0674 17.9447 15.5667ZM17.9447 4.43333C18.9973 5.93262 19.636 7.74312 19.6955 9.7H15.2959C15.2579 8.2928 14.9554 6.99892 14.516 5.84359C15.2527 5.67584 15.8632 5.47794 16.3618 5.27855C17.0062 5.02081 17.4622 4.7611 17.7607 4.56213C17.8306 4.51558 17.8918 4.47237 17.9447 4.43333ZM13.9205 5.96688C14.3563 7.08622 14.6568 8.33912 14.6957 9.7H10.3V9.68975V9.653V9.61625V9.57949V9.54273V9.50597V9.4692V9.43242V9.39565V9.35887V9.32209V9.28531V9.24852V9.21174V9.17496V9.13818V9.1014V9.06462V9.02785V8.99107V8.95431V8.91754V8.88078V8.84403V8.80728V8.77053V8.73379V8.69706V8.66034V8.62363V8.58692V8.55023V8.51354V8.47686V8.4402V8.40354V8.3669V8.33027V8.29365V8.25705V8.22046V8.18388V8.14732V8.11077V8.07424V8.03773V8.00123V7.96475V7.92829V7.89185V7.85542V7.81902V7.78263V7.74627V7.70993V7.67361V7.63731V7.60103V7.56478V7.52855V7.49234V7.45616V7.42001V7.38388V7.34778V7.3117V7.27565V7.23963V7.20364V7.16767V7.13174V7.09583V7.05996V7.02412V6.9883V6.95252V6.91678V6.88106V6.84538V6.80973V6.77412V6.73855V6.703V6.6675V6.63203V6.5966V6.5612V6.52585V6.49053V6.45525V6.42002V6.38482V6.34966V6.31455V6.29833C11.7255 6.28241 12.9232 6.15361 13.9205 5.96688ZM10.3 10.313V10.3H14.6957C14.6568 11.6609 14.3563 12.9138 13.9205 14.0331C12.9232 13.8464 11.7255 13.7176 10.3 13.7017V13.6762V13.6435V13.6107V13.5778V13.5449V13.5119V13.4788V13.4457V13.4125V13.3793V13.346V13.3126V13.2792V13.2457V13.2121V13.1785V13.1449V13.1112V13.0774V13.0436V13.0097V12.9758V12.9418V12.9077V12.8736V12.8395V12.8053V12.7711V12.7367V12.7024V12.668V12.6335V12.599V12.5645V12.5299V12.4953V12.4606V12.4258V12.391V12.3562V12.3213V12.2864V12.2515V12.2165V12.1814V12.1463V12.1112V12.076V12.0408V12.0056V11.9703V11.9349V11.8996V11.8642V11.8287V11.7932V11.7577V11.7222V11.6866V11.6509V11.6153V11.5796V11.5439V11.5081V11.4723V11.4365V11.4006V11.3648V11.3288V11.2929V11.2569V11.2209V11.1849V11.1488V11.1127V11.0766V11.0405V11.0043V10.9681V10.9319V10.8957V10.8594V10.8231V10.7868V10.7505V10.7141V10.6778V10.6414V10.605V10.5685V10.5321V10.4956V10.4591V10.4226V10.3861V10.3496V10.313ZM10.3 5.6983V5.69012V5.65589V5.62171V5.58758V5.5535V5.51948V5.48551V5.4516V5.41774V5.38393V5.35018V5.31649V5.28286V5.24928V5.21576V5.1823V5.1489V5.11555V5.08227V5.04905V5.01589V4.98279V4.94975V4.91677V4.88386V4.85101V4.81823V4.78551V4.75285V4.72026V4.68774V4.65528V4.62289V4.59057V4.55832V4.52614V4.49402V4.46198V4.43V4.3981V4.36626V4.3345V4.30282V4.2712V4.23966V4.20819V4.1768V4.14548V4.11424V4.08307V4.05198V4.02097V3.99003V3.95917V3.9284V3.8977V3.86708V3.83654V3.80608V3.7757V3.7454V3.71519V3.68506V3.65501V3.62505V3.59517V3.56537V3.53567V3.50604V3.47651V3.44706V3.41769V3.38842V3.35923V3.33014V3.30113V3.27221V3.24338V3.21465V3.186V3.15745V3.12899V3.10063V3.07235V3.04418V3.01609V2.9881V2.96021V2.93241V2.90472V2.87711V2.84961V2.8222V2.79489V2.76769V2.74058V2.71357V2.68667V2.65986V2.63316V2.60656V2.58006V2.55366V2.52737V2.50119V2.47511V2.44913V2.42326V2.3975V2.37185V2.3463V2.32086V2.29553V2.27031V2.2452V2.2202V2.19531V2.17053V2.14586V2.12131V2.09686V2.07254V2.04832V2.02422V2.00023V1.97636V1.95261V1.92897V1.90545V1.88205V1.85877V1.8356V1.81255V1.78962V1.76682V1.74413V1.72156V1.69912V1.6768V1.6546V1.63252V1.61057V1.58874V1.56704V1.54546V1.52401V1.50268V1.48149V1.46041V1.43947V1.41866V1.39797V1.37741V1.35699V1.33669V1.31652V1.29649V1.27659V1.25682V1.23718V1.21768V1.19831V1.17908V1.15998V1.14102V1.12219V1.1035V1.08495V1.06653V1.04826V1.03012V1.01212V0.994261V0.976543V0.958965V0.941529V0.924235V0.907083V0.890074V0.873208V0.856487V0.83991V0.823477V0.807191V0.79105V0.775056V0.75921V0.74351V0.727959V0.712557V0.697303V0.682199V0.668812C10.3818 0.746286 10.472 0.833742 10.5691 0.930882C11.0288 1.39053 11.6424 2.06549 12.2559 2.92437C12.7622 3.63322 13.2662 4.46418 13.6839 5.40024C12.7491 5.56753 11.6293 5.6831 10.3 5.6983ZM9.7 5.6983C8.37069 5.6831 7.25088 5.56753 6.31612 5.40024C6.73378 4.46418 7.2378 3.63322 7.74412 2.92437C8.35761 2.06549 8.97124 1.39053 9.43088 0.930882C9.52802 0.833742 9.61822 0.746286 9.7 0.668812V0.682199V0.697303V0.712557V0.727959V0.74351V0.75921V0.775056V0.79105V0.807191V0.823477V0.83991V0.856487V0.873208V0.890074V0.907083V0.924235V0.941529V0.958965V0.976543V0.994261V1.01212V1.03012V1.04826V1.06653V1.08495V1.1035V1.12219V1.14102V1.15998V1.17908V1.19831V1.21768V1.23718V1.25682V1.27659V1.29649V1.31652V1.33669V1.35699V1.37741V1.39797V1.41866V1.43947V1.46041V1.48149V1.50268V1.52401V1.54546V1.56704V1.58874V1.61057V1.63252V1.6546V1.6768V1.69912V1.72156V1.74413V1.76682V1.78962V1.81255V1.8356V1.85877V1.88205V1.90545V1.92897V1.95261V1.97636V2.00023V2.02422V2.04832V2.07254V2.09686V2.12131V2.14586V2.17053V2.19531V2.2202V2.2452V2.27031V2.29553V2.32086V2.3463V2.37185V2.3975V2.42326V2.44913V2.47511V2.50119V2.52737V2.55366V2.58006V2.60656V2.63316V2.65986V2.68667V2.71357V2.74058V2.76769V2.79489V2.8222V2.84961V2.87711V2.90472V2.93241V2.96021V2.9881V3.01609V3.04418V3.07235V3.10063V3.12899V3.15745V3.186V3.21465V3.24338V3.27221V3.30113V3.33014V3.35923V3.38842V3.41769V3.44706V3.47651V3.50604V3.53567V3.56537V3.59517V3.62505V3.65501V3.68506V3.71519V3.7454V3.7757V3.80608V3.83654V3.86708V3.8977V3.9284V3.95917V3.99003V4.02097V4.05198V4.08307V4.11424V4.14548V4.1768V4.20819V4.23966V4.2712V4.30282V4.3345V4.36626V4.3981V4.43V4.46198V4.49402V4.52614V4.55832V4.59057V4.62289V4.65528V4.68774V4.72026V4.75285V4.78551V4.81823V4.85101V4.88386V4.91677V4.94975V4.98279V5.01589V5.04905V5.08227V5.11555V5.1489V5.1823V5.21576V5.24928V5.28286V5.31649V5.35018V5.38393V5.41774V5.4516V5.48551V5.51948V5.5535V5.58758V5.62171V5.65589V5.69012V5.6983Z" stroke="#1C1C1D" stroke-width="0.6"/>
</svg>
